<svg width="155" height="155" viewBox="0 0 155 155" fill="none" xmlns="http://www.w3.org/2000/svg">
<g clip-path="url(#clip0_9731_20798)">
<path d="M116.335 89.7999L151.997 89.3161L141.766 100.551L148.224 111.704L112.562 112.182L116.335 89.7999Z" fill="#A75723"/>
<path d="M44.439 92.0826L8.77227 92.5604L15.2537 103.574L4.99867 114.948L40.6663 114.465L44.439 92.0826Z" fill="#A75723"/>
<path d="M33.0713 74.5667V43.9922L78.8954 23.6259L124.72 43.9922V74.5667C124.72 102.992 105.12 129.522 78.8954 136.121C52.6716 129.522 33.0713 102.992 33.0713 74.5667Z" fill="url(#paint0_linear_9731_20798)"/>
<path d="M33.0713 74.5667V43.9922L78.8954 23.6259L124.72 43.9922V74.5667C124.72 102.992 105.12 129.522 78.8954 136.121C52.6716 129.522 33.0713 102.992 33.0713 74.5667Z" stroke="#8B6464" stroke-width="3"/>
<path d="M33.0713 74.5667V43.9922L78.8954 23.6259L124.72 43.9922V74.5667C124.72 102.992 105.12 129.522 78.8954 136.121C52.6716 129.522 33.0713 102.992 33.0713 74.5667Z" stroke="black" stroke-opacity="0.2" stroke-width="3"/>
<path d="M22.0506 95.958L139.787 94.3704L136.013 116.758L18.277 118.345L22.0506 95.958Z" fill="#8B491E"/>
<path d="M31.7654 110.798L27.2771 110.899L27.1017 103.105L31.59 103.004L31.6205 104.358L28.7847 104.422L28.8232 106.133L31.4618 106.074L31.4923 107.428L28.8536 107.487L28.8989 109.497L31.7347 109.433L31.7654 110.798ZM34.4208 107.693L32.4362 104.82L34.2806 104.778L35.48 106.65L36.6047 104.726L38.4491 104.685L36.5744 107.644L38.6738 110.642L36.8241 110.684L35.5255 108.67L34.3134 110.74L32.469 110.782L34.4208 107.693ZM42.0639 109.377C42.2416 109.373 42.4136 109.351 42.5798 109.312C42.7496 109.272 42.9174 109.224 43.0832 109.167L43.1104 110.377C42.938 110.459 42.7227 110.528 42.4644 110.583C42.2097 110.643 41.9296 110.676 41.624 110.682C41.2686 110.69 40.9475 110.641 40.6606 110.533C40.3773 110.422 40.1506 110.227 39.9808 109.946C39.8144 109.662 39.7254 109.264 39.7139 108.752L39.6493 105.879L38.871 105.896L38.8555 105.209L39.7388 104.645L40.1796 103.376L41.2191 103.353L41.2476 104.622L42.9161 104.584L42.9435 105.805L41.2751 105.842L41.3397 108.715C41.3448 108.943 41.4126 109.112 41.5431 109.223C41.6771 109.33 41.8507 109.381 42.0639 109.377ZM46.6449 104.388C47.1958 104.376 47.6726 104.472 48.0754 104.676C48.4781 104.877 48.7924 105.175 49.0182 105.572C49.244 105.969 49.3634 106.457 49.3765 107.036L49.3942 107.825L45.5509 107.911C45.579 108.369 45.7239 108.727 45.9857 108.984C46.2509 109.238 46.6128 109.359 47.0712 109.349C47.4515 109.341 47.7988 109.294 48.1134 109.208C48.4279 109.123 48.7504 108.999 49.0809 108.835L49.1092 110.093C48.8176 110.245 48.5108 110.359 48.1889 110.433C47.8706 110.508 47.4822 110.551 47.0238 110.561C46.4268 110.574 45.8948 110.476 45.4279 110.266C44.9645 110.056 44.5962 109.728 44.3231 109.283C44.0535 108.838 43.911 108.272 43.8956 107.586C43.8799 106.889 43.9842 106.308 44.2083 105.84C44.4359 105.369 44.7586 105.014 45.1763 104.773C45.5939 104.529 46.0834 104.401 46.6449 104.388ZM46.6816 105.545C46.3653 105.552 46.1046 105.659 45.8995 105.866C45.698 106.073 45.5861 106.394 45.5639 106.828L47.8453 106.777C47.8363 106.536 47.7871 106.322 47.6976 106.135C47.6116 105.949 47.4838 105.802 47.3143 105.696C47.1484 105.589 46.9375 105.539 46.6816 105.545ZM54.0224 104.222C54.6585 104.208 55.1742 104.37 55.5694 104.71C55.9645 105.046 56.1706 105.596 56.1878 106.36L56.2752 110.246L54.6494 110.283L54.5711 106.802C54.5615 106.375 54.4761 106.055 54.3148 105.842C54.1572 105.629 53.9131 105.526 53.5826 105.533C53.0851 105.545 52.7495 105.721 52.5758 106.063C52.4022 106.404 52.3225 106.893 52.3368 107.529L52.3999 110.333L50.7741 110.37L50.64 104.41L51.882 104.382L52.1177 105.14L52.2084 105.138C52.3317 104.929 52.486 104.758 52.6715 104.626C52.8605 104.494 53.0699 104.395 53.2995 104.329C53.5327 104.263 53.7736 104.228 54.0224 104.222ZM59.8384 110.273C59.1739 110.287 58.6261 110.04 58.1951 109.531C57.7676 109.018 57.5425 108.257 57.5197 107.247C57.4968 106.228 57.6909 105.452 58.102 104.92C58.5131 104.384 59.0598 104.109 59.7421 104.093C60.0264 104.087 60.2778 104.121 60.4963 104.194C60.7149 104.267 60.9038 104.368 61.0631 104.496C61.226 104.624 61.3643 104.768 61.4782 104.929L61.5315 104.928C61.5076 104.815 61.4772 104.648 61.4403 104.429C61.4068 104.205 61.3874 103.976 61.3821 103.742L61.3392 101.834L62.9703 101.797L63.157 110.091L61.9096 110.119L61.5777 109.353L61.5084 109.355C61.4091 109.521 61.2827 109.673 61.1294 109.811C60.9795 109.946 60.7989 110.055 60.5874 110.138C60.3759 110.221 60.1263 110.266 59.8384 110.273ZM60.3797 108.964C60.8239 108.954 61.1336 108.816 61.309 108.549C61.4878 108.278 61.5765 107.876 61.5752 107.343L61.5712 107.167C61.5582 106.588 61.4594 106.147 61.2748 105.846C61.0902 105.54 60.7562 105.393 60.2729 105.404C59.914 105.412 59.6367 105.573 59.4411 105.887C59.2455 106.201 59.1543 106.649 59.1674 107.232C59.1805 107.814 59.2916 108.251 59.5008 108.541C59.7136 108.832 60.0065 108.973 60.3797 108.964ZM67.1782 103.926C67.729 103.914 68.2058 104.01 68.6086 104.214C69.0114 104.415 69.3256 104.713 69.5514 105.11C69.7773 105.507 69.8967 105.995 69.9097 106.574L69.9275 107.363L66.0841 107.449C66.1122 107.907 66.2572 108.265 66.5189 108.522C66.7842 108.776 67.146 108.897 67.6045 108.887C67.9847 108.879 68.3321 108.832 68.6466 108.746C68.9611 108.661 69.2837 108.536 69.6142 108.373L69.6425 109.631C69.3508 109.783 69.044 109.897 68.7222 109.971C68.4039 110.046 68.0155 110.089 67.5571 110.099C66.96 110.112 66.4281 110.014 65.9611 109.804C65.4977 109.594 65.1295 109.266 64.8564 108.821C64.5868 108.376 64.4443 107.81 64.4288 107.124C64.4132 106.427 64.5174 105.846 64.7416 105.378C64.9692 104.907 65.2918 104.552 65.7095 104.311C66.1271 104.067 66.6167 103.939 67.1782 103.926ZM67.2149 105.083C66.8986 105.09 66.6379 105.197 66.4328 105.404C66.2312 105.611 66.1193 105.932 66.0971 106.366L68.3786 106.315C68.3696 106.074 68.3203 105.86 68.2308 105.673C68.1448 105.487 68.0171 105.34 67.8476 105.234C67.6816 105.127 67.4707 105.077 67.2149 105.083ZM73.1968 109.972C72.5322 109.987 71.9845 109.74 71.5535 109.23C71.1259 108.717 70.9008 107.956 70.8781 106.947C70.8551 105.927 71.0492 105.151 71.4604 104.619C71.8714 104.084 72.4181 103.808 73.1004 103.793C73.3847 103.787 73.6361 103.82 73.8547 103.893C74.0732 103.967 74.2621 104.067 74.4214 104.195C74.5843 104.323 74.7227 104.467 74.8365 104.628L74.8898 104.627C74.8659 104.514 74.8355 104.348 74.7986 104.128C74.7651 103.905 74.7458 103.676 74.7405 103.441L74.6975 101.533L76.3287 101.496L76.5153 109.791L75.268 109.819L74.9361 109.053L74.8668 109.054C74.7674 109.22 74.641 109.372 74.4877 109.511C74.3379 109.646 74.1572 109.755 73.9458 109.838C73.7343 109.921 73.4846 109.965 73.1968 109.972ZM73.738 108.664C74.1822 108.654 74.492 108.515 74.6673 108.248C74.8461 107.978 74.9348 107.576 74.9335 107.042L74.9295 106.866C74.9165 106.287 74.8177 105.847 74.6331 105.545C74.4485 105.24 74.1145 105.093 73.6312 105.104C73.2723 105.112 72.995 105.273 72.7994 105.586C72.6038 105.9 72.5126 106.348 72.5257 106.931C72.5388 107.514 72.65 107.951 72.8592 108.241C73.0719 108.531 73.3649 108.672 73.738 108.664ZM90.5778 101.677L88.7702 109.515L86.8885 109.557L85.741 105.487C85.7179 105.409 85.6868 105.291 85.6477 105.132C85.6085 104.973 85.5673 104.799 85.524 104.612C85.4806 104.421 85.441 104.242 85.4052 104.076C85.373 103.906 85.3504 103.771 85.3375 103.672C85.3291 103.772 85.3107 103.906 85.2825 104.073C85.2578 104.241 85.2281 104.42 85.1932 104.609C85.1619 104.798 85.1304 104.975 85.0985 105.139C85.0666 105.303 85.041 105.428 85.0216 105.514L84.0634 109.621L82.187 109.663L80.0234 101.914L81.6492 101.878L82.7417 106.109C82.773 106.237 82.8084 106.389 82.848 106.566C82.8911 106.742 82.9326 106.928 82.9725 107.123C83.0159 107.314 83.0539 107.5 83.0864 107.68C83.1224 107.857 83.1489 108.011 83.1661 108.142C83.1808 108.007 83.2004 107.85 83.2249 107.672C83.2492 107.49 83.2753 107.306 83.3031 107.121C83.3344 106.931 83.366 106.757 83.398 106.596C83.4299 106.435 83.459 106.305 83.4852 106.205L84.5223 101.813L86.0842 101.778L87.3178 106.118C87.3449 106.214 87.3762 106.343 87.4119 106.505C87.451 106.665 87.4905 106.838 87.5302 107.025C87.57 107.213 87.6062 107.397 87.6387 107.578C87.6746 107.755 87.7012 107.909 87.7184 108.04C87.7393 107.862 87.7682 107.646 87.8052 107.393C87.8456 107.136 87.8879 106.881 87.9319 106.627C87.9796 106.374 88.021 106.161 88.0563 105.99L88.952 101.714L90.5778 101.677ZM93.9106 103.314C94.7102 103.296 95.3271 103.456 95.7614 103.795C96.1957 104.134 96.4208 104.658 96.4368 105.369L96.5262 109.34L95.3908 109.366L95.058 108.563L95.0154 108.564C94.8496 108.781 94.6794 108.959 94.5047 109.098C94.3301 109.237 94.128 109.341 93.8985 109.41C93.6689 109.479 93.3889 109.518 93.0584 109.525C92.7066 109.533 92.3888 109.473 92.105 109.344C91.8248 109.215 91.6016 109.014 91.4354 108.74C91.2692 108.463 91.1812 108.11 91.1716 107.68C91.1573 107.047 91.369 106.576 91.8064 106.268C92.2439 105.956 92.9064 105.774 93.7941 105.722L94.8275 105.667L94.8217 105.405C94.8146 105.093 94.7277 104.865 94.561 104.723C94.3942 104.581 94.1652 104.514 93.8738 104.52C93.5859 104.527 93.3043 104.574 93.029 104.662C92.7536 104.75 92.4787 104.859 92.2043 104.99L91.6413 103.904C91.9538 103.73 92.3044 103.59 92.6932 103.485C93.0855 103.381 93.4913 103.323 93.9106 103.314ZM94.8489 106.615L94.2204 106.651C93.6947 106.677 93.3308 106.779 93.1286 106.958C92.93 107.137 92.8339 107.368 92.8403 107.653C92.8459 107.901 92.9227 108.077 93.0708 108.181C93.2188 108.281 93.4101 108.328 93.6446 108.323C93.9929 108.315 94.2838 108.205 94.5172 107.994C94.7542 107.782 94.8685 107.486 94.8599 107.106L94.8489 106.615ZM101.395 103.156C101.477 103.154 101.571 103.158 101.678 103.166C101.788 103.171 101.877 103.179 101.945 103.192L101.857 104.719C101.803 104.703 101.726 104.692 101.627 104.687C101.531 104.678 101.447 104.675 101.376 104.677C101.166 104.681 100.962 104.713 100.765 104.77C100.57 104.828 100.396 104.919 100.243 105.043C100.089 105.164 99.9682 105.323 99.8802 105.521C99.7956 105.715 99.7565 105.952 99.7629 106.233L99.8311 109.266L98.2053 109.303L98.0712 103.343L99.3025 103.315L99.565 104.312L99.6449 104.31C99.7576 104.105 99.8992 103.917 100.07 103.746C100.243 103.571 100.441 103.432 100.663 103.327C100.888 103.219 101.132 103.162 101.395 103.156ZM106.352 103.045C106.434 103.043 106.528 103.046 106.635 103.054C106.746 103.059 106.835 103.068 106.902 103.08L106.814 104.608C106.76 104.591 106.684 104.58 106.584 104.575C106.488 104.567 106.404 104.563 106.333 104.565C106.124 104.57 105.92 104.601 105.722 104.659C105.528 104.717 105.354 104.808 105.2 104.932C105.046 105.053 104.926 105.212 104.838 105.409C104.753 105.603 104.714 105.841 104.72 106.121L104.789 109.154L103.163 109.191L103.029 103.231L104.26 103.204L104.522 104.201L104.602 104.199C104.715 103.994 104.857 103.805 105.027 103.635C105.201 103.46 105.399 103.32 105.62 103.216C105.845 103.108 106.089 103.051 106.352 103.045ZM110.425 102.942C111.224 102.924 111.841 103.085 112.275 103.423C112.71 103.762 112.935 104.287 112.951 104.998L113.04 108.969L111.905 108.994L111.572 108.191L111.529 108.192C111.364 108.409 111.193 108.587 111.019 108.726C110.844 108.865 110.642 108.969 110.412 109.039C110.183 109.108 109.903 109.146 109.572 109.153C109.221 109.161 108.903 109.101 108.619 108.972C108.339 108.843 108.116 108.642 107.949 108.369C107.783 108.092 107.695 107.738 107.686 107.308C107.671 106.675 107.883 106.205 108.32 105.896C108.758 105.584 109.42 105.402 110.308 105.35L111.342 105.295L111.336 105.034C111.329 104.721 111.242 104.494 111.075 104.352C110.908 104.21 110.679 104.142 110.388 104.149C110.1 104.155 109.818 104.202 109.543 104.29C109.268 104.378 108.993 104.487 108.718 104.618L108.155 103.532C108.468 103.358 108.818 103.219 109.207 103.114C109.599 103.009 110.005 102.952 110.425 102.942ZM111.363 106.244L110.734 106.279C110.209 106.305 109.845 106.408 109.643 106.587C109.444 106.765 109.348 106.997 109.354 107.281C109.36 107.53 109.437 107.706 109.585 107.809C109.733 107.909 109.924 107.956 110.159 107.951C110.507 107.943 110.798 107.833 111.031 107.622C111.268 107.41 111.382 107.115 111.374 106.734L111.363 106.244ZM117.968 102.783C118.604 102.769 119.119 102.932 119.515 103.271C119.91 103.607 120.116 104.157 120.133 104.921L120.22 108.807L118.595 108.844L118.516 105.363C118.507 104.937 118.421 104.617 118.26 104.403C118.102 104.19 117.858 104.087 117.528 104.095C117.03 104.106 116.695 104.282 116.521 104.624C116.347 104.966 116.268 105.454 116.282 106.091L116.345 108.894L114.719 108.931L114.585 102.971L115.827 102.943L116.063 103.701L116.154 103.699C116.277 103.49 116.431 103.319 116.617 103.187C116.806 103.055 117.015 102.956 117.245 102.89C117.478 102.825 117.719 102.789 117.968 102.783ZM124.378 107.524C124.556 107.52 124.728 107.499 124.894 107.459C125.064 107.42 125.232 107.372 125.397 107.315L125.425 108.525C125.252 108.607 125.037 108.676 124.779 108.731C124.524 108.79 124.244 108.823 123.938 108.83C123.583 108.838 123.262 108.789 122.975 108.681C122.692 108.57 122.465 108.374 122.295 108.094C122.129 107.81 122.04 107.412 122.028 106.9L121.964 104.027L121.185 104.044L121.17 103.357L122.053 102.793L122.494 101.524L123.533 101.501L123.562 102.769L125.23 102.732L125.258 103.953L123.589 103.99L123.654 106.863C123.659 107.091 123.727 107.26 123.857 107.371C123.991 107.478 124.165 107.529 124.378 107.524ZM125.651 102.722L127.432 102.682L128.632 106.01C128.67 106.116 128.703 106.224 128.73 106.333C128.757 106.443 128.781 106.556 128.802 106.673C128.822 106.79 128.839 106.912 128.853 107.04L128.884 107.039C128.902 106.847 128.926 106.666 128.958 106.499C128.993 106.331 129.037 106.164 129.09 106L130.118 102.622L131.862 102.583L129.491 109.361C129.348 109.777 129.157 110.124 128.918 110.403C128.679 110.686 128.401 110.9 128.084 111.046C127.771 111.192 127.424 111.269 127.044 111.278C126.859 111.282 126.699 111.275 126.563 111.256C126.428 111.242 126.312 111.225 126.216 111.206L126.187 109.916C126.262 109.932 126.356 109.946 126.47 109.957C126.584 109.969 126.703 109.973 126.828 109.971C127.055 109.965 127.25 109.913 127.411 109.813C127.572 109.714 127.706 109.581 127.813 109.415C127.919 109.253 128.002 109.075 128.062 108.881L128.151 108.586L125.651 102.722Z" fill="white"/>
<path d="M61.6421 83.7969L64.3713 78.1303L67.4835 78.0677L63.1316 86.4796L63.2382 91.7815L60.3682 91.8392L60.2635 86.6304L55.5751 78.3072L58.706 78.2442L61.6421 83.7969ZM77.3176 91.4984L69.4719 91.6562L69.198 78.0333L77.0438 77.8755L77.0914 80.2423L72.1342 80.342L72.1943 83.333L76.8067 83.2403L76.8543 85.6071L72.2419 85.6998L72.3125 89.2127L77.2697 89.113L77.3176 91.4984ZM88.5086 91.2735L87.4557 88.0507L82.4892 88.1505L81.5667 91.413L78.4544 91.4756L82.9875 77.7001L86.519 77.6291L91.6208 91.2109L88.5086 91.2735ZM86.7174 85.6418L85.666 82.4936C85.5997 82.2836 85.5104 82.0151 85.3981 81.688C85.292 81.3545 85.1827 81.018 85.0702 80.6785C84.9638 80.3326 84.877 80.033 84.8098 79.7795C84.7528 80.0355 84.6722 80.354 84.568 80.7352C84.4699 81.1101 84.3745 81.4662 84.2819 81.8036C84.1892 82.1411 84.1226 82.3817 84.082 82.5254L83.1673 85.7132L86.7174 85.6418ZM97.0402 77.4735C98.2764 77.4487 99.2981 77.5773 100.105 77.8594C100.919 78.1413 101.528 78.5796 101.931 79.1743C102.334 79.769 102.545 80.526 102.564 81.4454C102.576 82.0666 102.469 82.6125 102.243 83.0832C102.016 83.5538 101.713 83.9545 101.335 84.2853C100.956 84.6161 100.545 84.8884 100.102 85.1024L104.228 90.9574L101.023 91.0219L97.6655 85.8599L96.1281 85.8908L96.2332 91.1182L93.3446 91.1762L93.0707 77.5533L97.0402 77.4735ZM96.8828 79.8444L96.0069 79.862L96.0809 83.5426L97.0127 83.5239C97.9693 83.5047 98.6494 83.3325 99.0531 83.0075C99.4628 82.6761 99.6614 82.1998 99.6489 81.5786C99.6359 80.9326 99.403 80.4774 98.9503 80.213C98.5037 79.9486 97.8146 79.8257 96.8828 79.8444Z" fill="#552401"/>
<path d="M85.9628 74.0119L75.5996 74.007L75.6083 55.3222C75.6085 54.9776 75.6088 54.3487 75.6092 53.4356C75.6097 52.5052 75.6188 51.4801 75.6365 50.3602C75.6715 49.2403 75.715 48.2325 75.7671 47.3366C75.3189 47.8705 74.8966 48.3268 74.5002 48.7057C74.121 49.0846 73.7504 49.4376 73.3884 49.7648L69.0967 53.3033L63.8019 46.7882L76.7803 36.2243L85.9806 36.2287L85.9628 74.0119Z" fill="#552401"/>
</g>
<defs>
<linearGradient id="paint0_linear_9731_20798" x1="78.8954" y1="21.9844" x2="78.8954" y2="137.666" gradientUnits="userSpaceOnUse">
<stop offset="0.541667" stop-color="#E5BC71"/>
<stop offset="1" stop-color="#B76F3F"/>
</linearGradient>
<clipPath id="clip0_9731_20798">
<rect width="155" height="155" fill="white"/>
</clipPath>
</defs>
</svg>
