<svg width="47" height="46" viewBox="0 0 47 46" fill="none" xmlns="http://www.w3.org/2000/svg">
<g clip-path="url(#clip0_8464_41860)">
<g clip-path="url(#clip1_8464_41860)">
<g clip-path="url(#clip2_8464_41860)">
<path d="M11.4394 45.5351C11.1858 45.4078 10.987 45.1927 10.8798 44.93C10.7727 44.6673 10.7644 44.3745 10.8565 44.1058L12.3683 39.6796L15.328 41.6766L12.9362 45.1515C12.7748 45.3851 12.5345 45.5523 12.2595 45.623C11.9845 45.6933 11.6933 45.662 11.4394 45.5351ZM35.2521 45.5351C35.7748 45.2715 36.0267 44.6625 35.835 44.1058L34.3044 39.627L31.1868 41.4208L33.7553 45.1515C33.9167 45.3851 34.157 45.5523 34.432 45.623C34.707 45.6933 34.9982 45.662 35.2521 45.5351Z" fill="#F9EE4A"/>
<path d="M23.3459 43.9965C33.5978 43.9965 41.9086 35.6857 41.9086 25.4338C41.9086 15.1819 33.5978 6.87109 23.3459 6.87109C13.094 6.87109 4.7832 15.1819 4.7832 25.4338C4.7832 35.6857 13.094 43.9965 23.3459 43.9965Z" fill="url(#paint0_linear_8464_41860)"/>
<path d="M23.346 43.8171C32.9832 43.8171 40.7956 36.0046 40.7956 26.3675C40.7956 16.7304 32.9832 8.91797 23.346 8.91797C13.7089 8.91797 5.89648 16.7304 5.89648 26.3675C5.89648 36.0046 13.7089 43.8171 23.346 43.8171Z" fill="url(#paint1_linear_8464_41860)"/>
<path d="M23.346 41.4205C31.6601 41.4205 38.4 34.6806 38.4 26.3665C38.4 18.0524 31.6601 11.3125 23.346 11.3125C15.0319 11.3125 8.29199 18.0524 8.29199 26.3665C8.29199 34.6806 15.0319 41.4205 23.346 41.4205Z" fill="white"/>
<path d="M23.4586 28.0404C24.3829 28.0404 25.1322 27.2911 25.1322 26.3668C25.1322 25.4426 24.3829 24.6934 23.4586 24.6934C22.5344 24.6934 21.7852 25.4426 21.7852 26.3668C21.7852 27.2911 22.5344 28.0404 23.4586 28.0404Z" fill="#48AFFF"/>
<path d="M16.9268 16.3518L16.0995 14.919C15.9453 14.6558 16.0356 14.3173 16.3026 14.1631C16.5658 14.0089 16.9043 14.0992 17.0585 14.3662L17.8858 15.799C18.04 16.0622 17.9497 16.4007 17.6827 16.5549C17.4195 16.7054 17.081 16.6151 16.9268 16.3518ZM29.6379 38.3631L28.8106 36.9303C28.6564 36.667 28.7504 36.3286 29.0136 36.1744C29.2769 36.0202 29.6154 36.1142 29.7696 36.3774L30.5969 37.8103C30.7511 38.0735 30.6571 38.412 30.3938 38.5661C30.1268 38.7166 29.7884 38.6263 29.6379 38.3631ZM12.7826 20.9023L11.3497 20.0749C11.0865 19.9207 10.9962 19.586 11.1467 19.319C11.3009 19.0558 11.6355 18.9655 11.9026 19.1159L13.3354 19.9433C13.5986 20.0975 13.6889 20.4322 13.5384 20.6992C13.3843 20.9662 13.0458 21.0564 12.7826 20.9023ZM34.7938 33.6096L33.361 32.7822C33.0978 32.628 33.0075 32.2934 33.1579 32.0264C33.3121 31.7631 33.6468 31.6728 33.9138 31.8233L35.3466 32.6506C35.6099 32.8048 35.7001 33.1395 35.5497 33.4065C35.3955 33.6735 35.0571 33.7638 34.7938 33.6096ZM29.0099 16.5549C28.7466 16.4007 28.6564 16.066 28.8068 15.799L29.6342 14.3662C29.7884 14.1029 30.123 14.0127 30.39 14.1631C30.6533 14.3173 30.7436 14.652 30.5931 14.919L29.7658 16.3518C29.6116 16.6151 29.2769 16.7054 29.0099 16.5549ZM16.3026 38.5661C16.0393 38.412 15.9491 38.0773 16.0995 37.8103L16.9268 36.3774C17.081 36.1142 17.4157 36.0239 17.6827 36.1744C17.946 36.3286 18.0362 36.6632 17.8858 36.9303L17.0585 38.3631C16.9043 38.6263 16.5658 38.7166 16.3026 38.5661ZM33.1579 20.6992C33.0037 20.4359 33.094 20.0975 33.361 19.9433L34.7938 19.1159C35.0571 18.9617 35.3955 19.0558 35.5497 19.319C35.7039 19.5823 35.6099 19.9207 35.3466 20.0749L33.9138 20.9023C33.6468 21.0564 33.3084 20.9662 33.1579 20.6992ZM11.1467 33.4103C10.9925 33.147 11.0865 32.8085 11.3497 32.6544L12.7826 31.827C13.0458 31.6728 13.3843 31.7669 13.5384 32.0301C13.6926 32.2934 13.5986 32.6318 13.3354 32.786L11.9026 33.6134C11.6355 33.7638 11.2971 33.6735 11.1467 33.4103Z" fill="#EF4A7B"/>
<path d="M17.25 22.9043L23.346 26.3679L17.25 22.9043Z" fill="#48AFFF"/>
<path d="M17.25 22.9043L23.346 26.3679" stroke="#48AFFF" stroke-width="0.376073" stroke-miterlimit="10" stroke-linecap="round"/>
<path d="M32.0592 21.3691L23.624 26.3671L32.0592 21.3691Z" fill="#48AFFF"/>
<path d="M32.0592 21.3691L23.624 26.3671" stroke="#48AFFF" stroke-width="0.376073" stroke-miterlimit="10" stroke-linecap="round"/>
<path d="M33.9846 11.2456L32.4277 10.2265L37.7265 0.839844L39.3436 1.75369L33.9846 11.2456Z" fill="#F9EE4A"/>
<path d="M41.1977 12.2684C41.6603 12.4038 42.1567 12.1481 42.2996 11.6893C43.518 7.79699 41.9386 3.56247 38.1177 1.59563C34.2705 -0.386247 30.0924 0.914949 27.6593 4.23563C27.3847 4.60793 27.4487 5.13067 27.7946 5.4353C28.5806 6.131 30.3256 7.43973 33.8042 9.19974C37.4784 11.0575 39.998 11.9149 41.1977 12.2684Z" fill="#48AFFF"/>
<path d="M39.1968 2.90053C39.1968 2.90053 40.1783 1.64822 38.7531 0.854716C37.6437 0.237965 36.9404 1.58805 36.9404 1.58805C36.696 2.03557 39.0276 3.2089 39.1968 2.90053ZM12.7893 11.2568L7.42285 1.75352L9.0437 0.839674L14.256 10.0759L12.7893 11.2568Z" fill="#F9EE4A"/>
<path d="M5.71965 12.2684C5.25709 12.4038 4.76068 12.1481 4.61777 11.6893C3.39931 7.79699 4.9788 3.56247 8.79967 1.59563C12.6468 -0.386247 16.8249 0.914949 19.2581 4.23563C19.5326 4.60793 19.4687 5.13067 19.1227 5.4353C18.3367 6.131 16.5918 7.43973 13.1132 9.19974C9.43897 11.0575 6.91931 11.9149 5.71965 12.2684Z" fill="#48AFFF"/>
<path d="M7.72008 2.90053C7.72008 2.90053 6.73854 1.64822 8.16384 0.854716C9.27326 0.237965 9.9765 1.58805 9.9765 1.58805C10.2209 2.03557 7.88931 3.2089 7.72008 2.90053Z" fill="#F9EE4A"/>
<path d="M23.3457 7.75927V2.59961" stroke="#F9EE4A" stroke-width="1.39373" stroke-miterlimit="10"/>
<path d="M23.3681 4.43464C21.8939 4.43464 20.416 3.87054 20.416 3.87054V2.75361C20.416 2.75361 21.7887 2.14062 23.4396 2.14062C25.0905 2.14062 26.3165 2.75361 26.3165 2.75361V3.87054C26.3203 3.8743 24.8461 4.43464 23.3681 4.43464Z" fill="#F9EE4A"/>
<path d="M20.7889 2.70909C20.6272 2.76927 20.6122 2.99115 20.7626 3.07764C20.9807 3.20174 21.2402 3.32961 21.3305 3.31456C22.5715 3.12277 24.3728 3.21678 25.6176 3.40482C25.7041 3.41986 25.9524 3.20926 26.1291 3.05132C26.2269 2.96106 26.2043 2.80687 26.084 2.75046C25.6929 2.57371 24.8091 2.25781 23.4402 2.25781C22.1766 2.25781 21.2628 2.52482 20.7889 2.70909Z" fill="#EF4A7B"/>
<path d="M35.1396 1.99741C35.2562 2.39604 34.8275 2.72322 34.4815 2.95263C33.6093 3.53858 32.9084 4.34586 32.4507 5.29178C32.2326 5.74307 31.9882 6.29588 31.488 6.36732C31.2887 6.39364 31.0932 6.33347 30.9051 6.2658C30.6156 6.1605 30.3335 6.04015 30.059 5.901C29.7318 5.73552 29.3971 5.52492 29.2467 5.19021C29.0511 4.75023 29.2354 4.23126 29.4986 3.8251C30.1266 2.86613 31.1496 2.27194 32.2026 1.88083C32.8381 1.64391 34.8237 0.918099 35.1396 1.99741ZM9.21729 5.16767C9.4617 5.67535 9.73624 6.168 10.0409 6.64187C10.4132 7.22099 10.8456 7.86784 10.6877 8.53722C10.5034 9.30441 9.65353 9.67294 8.90516 9.92867C8.52154 10.0603 8.14172 10.1919 7.75813 10.3236C7.55506 10.395 7.3407 10.4665 7.12634 10.4552C6.78788 10.4401 6.48327 10.2258 6.29147 9.95125C6.09591 9.67671 5.99814 9.34577 5.92292 9.0186C5.64087 7.75877 5.69728 6.42372 6.08463 5.19021C6.31027 4.48322 6.66378 3.73861 7.4648 3.6822C8.43882 3.61451 8.85249 4.40801 9.21729 5.16767Z" fill="#0190FF"/>
<path d="M23.566 15.0357C23.2614 15.0357 23.0132 14.7875 23.0132 14.4829V12.8282C23.0132 12.5236 23.2614 12.2754 23.566 12.2754C23.8706 12.2754 24.1189 12.5236 24.1189 12.8282V14.4829C24.1189 14.7875 23.8706 15.0357 23.566 15.0357ZM23.566 40.4542C23.2614 40.4542 23.0132 40.2059 23.0132 39.9014V38.2466C23.0132 37.942 23.2614 37.6938 23.566 37.6938C23.8706 37.6938 24.1189 37.942 24.1189 38.2466V39.9014C24.1189 40.2059 23.8706 40.4542 23.566 40.4542ZM37.1007 26.9157H35.446C35.1414 26.9157 34.8932 26.6675 34.8932 26.3629C34.8932 26.0583 35.1414 25.8101 35.446 25.8101H37.1007C37.4053 25.8101 37.6535 26.0583 37.6535 26.3629C37.6535 26.6713 37.4053 26.9157 37.1007 26.9157ZM11.686 26.9157H10.0313C9.72674 26.9157 9.47852 26.6675 9.47852 26.3629C9.47852 26.0583 9.72674 25.8101 10.0313 25.8101H11.686C11.9907 25.8101 12.2389 26.0583 12.2389 26.3629C12.2389 26.6713 11.9907 26.9157 11.686 26.9157Z" fill="#EF4A7B"/>
</g>
</g>
</g>
<defs>
<linearGradient id="paint0_linear_8464_41860" x1="23.3459" y1="6.87109" x2="23.3459" y2="43.9965" gradientUnits="userSpaceOnUse">
<stop stop-color="#48AFFF"/>
<stop offset="1" stop-color="#0190FF"/>
</linearGradient>
<linearGradient id="paint1_linear_8464_41860" x1="23.346" y1="8.91797" x2="23.346" y2="43.8171" gradientUnits="userSpaceOnUse">
<stop stop-color="#48AFFF"/>
<stop offset="1" stop-color="#0190FF"/>
</linearGradient>
<clipPath id="clip0_8464_41860">
<rect width="47" height="45" fill="white" transform="translate(0 0.660156)"/>
</clipPath>
<clipPath id="clip1_8464_41860">
<rect width="47" height="45" fill="white" transform="translate(0 0.660156)"/>
</clipPath>
<clipPath id="clip2_8464_41860">
<rect width="38.5714" height="45" fill="white" transform="translate(4.21387 0.660156)"/>
</clipPath>
</defs>
</svg>
