<svg width="44" height="44" viewBox="0 0 44 44" fill="none" xmlns="http://www.w3.org/2000/svg">
<g clip-path="url(#clip0_9731_21351)">
<path d="M1.09082 5.21484H37.4544V37.2148H1.09082V5.21484Z" fill="#48AFFF"/>
<path d="M1.09082 5.21484H37.4544V13.9421H1.09082V5.21484Z" fill="#FFF548"/>
<path d="M6.91202 9.57848C6.91202 9.96425 6.75877 10.3342 6.48599 10.607C6.21321 10.8798 5.84324 11.033 5.45747 11.033C5.0717 11.033 4.70174 10.8798 4.42896 10.607C4.15618 10.3342 4.00293 9.96425 4.00293 9.57848C4.00293 9.19271 4.15618 8.82274 4.42896 8.54996C4.70174 8.27718 5.0717 8.12393 5.45747 8.12393C5.84324 8.12393 6.21321 8.27718 6.48599 8.54996C6.75877 8.82274 6.91202 9.19271 6.91202 9.57848ZM8.61674 5.21484L12.9804 9.57848L8.61674 13.9421H12.7302L15.0371 11.6352L17.0938 9.57848L15.0371 7.52175L12.7302 5.21484H8.61674ZM17.344 5.21484L21.7076 9.57848L17.344 13.9421H21.4575L23.7644 11.6352L25.8211 9.57848L23.7644 7.52175L21.4575 5.21484H17.344ZM26.0713 5.21484L30.4349 9.57848L26.0713 13.9421H30.1847L32.4916 11.6352L34.5484 9.57848L32.4916 7.52175L30.1847 5.21484H26.0713Z" fill="white"/>
<path d="M1.09153 4.48828C0.898645 4.48828 0.713661 4.56496 0.577271 4.70135C0.440881 4.83774 0.364258 5.02267 0.364258 5.21555V37.2155C0.364258 37.4084 0.440881 37.5935 0.577271 37.7299C0.713661 37.8663 0.898645 37.9428 1.09153 37.9428H37.4551C37.648 37.9428 37.833 37.8663 37.9694 37.7299C38.1058 37.5935 38.1824 37.4084 38.1824 37.2155V5.21555C38.1824 5.02267 38.1058 4.83774 37.9694 4.70135C37.833 4.56496 37.648 4.48828 37.4551 4.48828H1.09153ZM1.8188 5.94283H36.7279V36.4883H1.8188V5.94283Z" fill="#03A9F4"/>
<path d="M1.09153 4.48828C0.898645 4.48828 0.713661 4.56496 0.577271 4.70135C0.440881 4.83774 0.364258 5.02267 0.364258 5.21555V13.9428C0.364258 14.1357 0.440881 14.3208 0.577271 14.4572C0.713661 14.5936 0.898645 14.6701 1.09153 14.6701H37.4551C37.648 14.6701 37.833 14.5936 37.9694 14.4572C38.1058 14.3208 38.1824 14.1357 38.1824 13.9428V5.21555C38.1824 5.02267 38.1058 4.83774 37.9694 4.70135C37.833 4.56496 37.648 4.48828 37.4551 4.48828H1.09153ZM1.8188 5.94283H36.7279V13.2155H1.8188V5.94283Z" fill="#03A9F4"/>
<path d="M5.45818 7.39737C4.26109 7.39737 3.27637 8.38355 3.27637 9.57919C3.27637 10.7763 4.26109 11.761 5.45818 11.761C6.65527 11.761 7.64 10.7763 7.64 9.57919C7.64 8.38355 6.65527 7.39737 5.45818 7.39737ZM5.45818 8.85191C5.86836 8.85191 6.18546 9.169 6.18546 9.57919C6.18546 9.98937 5.86836 10.3065 5.45818 10.3065C5.3623 10.3078 5.26711 10.29 5.17825 10.2539C5.0894 10.2178 5.00868 10.1644 4.94087 10.0966C4.87306 10.0288 4.81954 9.94805 4.78348 9.85919C4.74741 9.77034 4.72954 9.67507 4.73091 9.57919C4.73091 9.169 5.048 8.85191 5.45818 8.85191ZM8.61745 4.48828C8.47342 4.48802 8.33256 4.53055 8.21272 4.61044C8.09288 4.69034 7.99947 4.80409 7.94431 4.93715C7.88916 5.0702 7.87476 5.21653 7.90293 5.35778C7.9311 5.49903 8.00057 5.62875 8.10254 5.73047L11.9527 9.57919L8.10254 13.4295C8.00107 13.5313 7.93203 13.6608 7.90415 13.8018C7.87627 13.9428 7.89079 14.0888 7.94588 14.2216C8.00098 14.3543 8.09417 14.4679 8.2137 14.5478C8.33322 14.6276 8.47372 14.6701 8.61745 14.6701H12.7309C12.8265 14.6703 12.9211 14.6517 13.0095 14.6152C13.0978 14.5788 13.1781 14.5252 13.2458 14.4577L15.5513 12.1509L17.6094 10.0941C17.7458 9.95772 17.8224 9.77274 17.8224 9.5799C17.8224 9.38705 17.7458 9.20225 17.6094 9.06587L15.5513 7.00905L13.2458 4.70224C13.1783 4.63448 13.098 4.58055 13.0097 4.54386C12.9213 4.50717 12.8266 4.4883 12.7309 4.48828H8.61745ZM17.3447 4.48828C17.2007 4.48802 17.0598 4.53055 16.94 4.61044C16.8201 4.69034 16.7267 4.80409 16.6716 4.93715C16.6164 5.0702 16.602 5.21653 16.6302 5.35778C16.6584 5.49903 16.7278 5.62875 16.8298 5.73047L20.68 9.57919L16.8298 13.4295C16.7283 13.5313 16.6593 13.6608 16.6314 13.8018C16.6035 13.9428 16.6181 14.0888 16.6731 14.2216C16.7282 14.3543 16.8214 14.4679 16.941 14.5478C17.0605 14.6276 17.201 14.6701 17.3447 14.6701H21.4582C21.5537 14.6703 21.6484 14.6517 21.7368 14.6152C21.8251 14.5788 21.9054 14.5252 21.9731 14.4577L24.2785 12.1509L26.3367 10.0941C26.4731 9.95772 26.5496 9.77274 26.5496 9.5799C26.5496 9.38705 26.4731 9.20225 26.3367 9.06587L24.2785 7.00905L21.9731 4.70224C21.9055 4.63448 21.8253 4.58055 21.7369 4.54386C21.6486 4.50717 21.5538 4.4883 21.4582 4.48828H17.3447ZM26.072 4.48828C25.928 4.48802 25.7871 4.53055 25.6673 4.61044C25.5474 4.69034 25.454 4.80409 25.3988 4.93715C25.3437 5.0702 25.3293 5.21653 25.3575 5.35778C25.3856 5.49903 25.4551 5.62875 25.5571 5.73047L29.4073 9.57919L25.5571 13.4295C25.4556 13.5313 25.3866 13.6608 25.3587 13.8018C25.3308 13.9428 25.3453 14.0888 25.4004 14.2216C25.4555 14.3543 25.5487 14.4679 25.6682 14.5478C25.7878 14.6276 25.9283 14.6701 26.072 14.6701H30.1854C30.281 14.6703 30.3757 14.6517 30.464 14.6152C30.5524 14.5788 30.6327 14.5252 30.7003 14.4577L33.0058 12.1509L35.064 10.0941C35.2003 9.95772 35.2769 9.77274 35.2769 9.5799C35.2769 9.38705 35.2003 9.20225 35.064 9.06587L33.0058 7.00905L30.7003 4.70224C30.6328 4.63448 30.5525 4.58055 30.4642 4.54386C30.3758 4.50717 30.2811 4.4883 30.1854 4.48828H26.072ZM10.3731 5.94283H12.4298L14.5244 8.03746L16.0662 9.57919L14.5244 11.1211L12.4298 13.2155H10.3731L13.4945 10.0941C13.6309 9.95772 13.7075 9.77274 13.7075 9.5799C13.7075 9.38705 13.6309 9.20225 13.4945 9.06587L10.3731 5.94283ZM19.1004 5.94283H21.1571L23.2516 8.03746L24.7934 9.57919L23.2516 11.1211L21.1571 13.2155H19.1004L22.2218 10.0941C22.3581 9.95772 22.4347 9.77274 22.4347 9.5799C22.4347 9.38705 22.3581 9.20225 22.2218 9.06587L19.1004 5.94283ZM27.8276 5.94283H29.8843L31.9789 8.03746L33.5207 9.57919L31.9789 11.1211L29.8843 13.2155H27.8276L30.9491 10.0941C31.0854 9.95772 31.162 9.77274 31.162 9.5799C31.162 9.38705 31.0854 9.20225 30.9491 9.06587L27.8276 5.94283Z" fill="#03A9F4"/>
<path d="M37.1743 14.7734H1.37012V36.2559H37.1743V14.7734Z" fill="white"/>
<path d="M24.3851 31.5478C24.2984 31.6345 24.2117 31.808 24.125 31.8947H26.0326V37.0969H27.5932V29.9004L24.3851 31.5478Z" fill="#48AFFF"/>
<path d="M18.8718 22.7434L18.9585 23.0034L14.71 23.8705V25.8647L16.7909 26.9052L16.6174 27.4254C17.051 27.6855 17.3979 27.9456 17.8313 28.3792C18.7851 29.4196 19.1319 30.6335 18.6117 31.0671C18.0915 31.5005 16.9643 30.9804 16.0973 29.9399C15.577 29.4196 15.2301 28.8127 15.1434 28.2925L14.7967 28.119V31.674H20.5192C20.1724 31.4138 19.9989 31.0671 19.9989 30.7202C19.9989 29.8532 21.0394 29.1595 22.4267 29.1595C22.7735 29.1595 23.0337 29.1595 23.2938 29.2462L27.8025 26.4716V25.1711L23.4671 21.7896C22.8602 21.3561 22.7735 20.5757 23.2071 19.9688L24.3343 18.4948C24.5943 18.148 25.0279 17.9745 25.3747 17.9745C24.8544 17.7144 24.1608 17.541 23.5539 17.541H21.5597C21.6464 20.2289 20.5192 22.3965 18.8718 22.7434Z" fill="#48AFFF"/>
<path d="M22.6871 32.3824C22.5137 32.3824 22.3403 32.3824 22.2536 32.3824C21.4732 32.3824 20.7796 32.1222 20.346 31.7754H14.6235H7.51367V36.9777H22.8605V32.3824C22.8605 32.3824 22.7738 32.3824 22.6871 32.3824Z" fill="#EFC995"/>
<path d="M24.1971 31.7754C23.8503 32.0355 23.4168 32.209 22.8965 32.3824V36.9777H26.1046V31.7754H24.1971Z" fill="#D3AD7A"/>
<path d="M29.0239 25.7896L23.1279 29.3446C23.995 29.6047 24.6886 30.125 24.6886 30.8186C24.6886 31.0787 24.6019 31.2521 24.5152 31.4255L27.7233 29.6914L31.3649 27.7839C32.8389 26.7435 33.1857 25.096 32.7522 24.4024L32.4921 23.9689C32.3187 23.7087 32.1452 23.4486 31.8851 23.2753C31.1915 22.9284 29.0239 25.7896 29.0239 25.7896Z" fill="#FFD8BD"/>
<path d="M23.119 29.3406C22.8589 29.2539 22.5121 29.2539 22.252 29.2539C20.9514 29.2539 19.8242 29.9476 19.8242 30.8146C19.8242 31.1615 19.9976 31.5083 20.3444 31.7684C20.778 32.1152 21.4717 32.3754 22.252 32.3754C22.4254 32.3754 22.5121 32.3754 22.6855 32.3754C22.6855 32.3754 22.6854 32.3754 22.7722 32.3754C22.8589 32.3754 22.8589 32.3754 22.9456 32.3754C23.4658 32.2886 23.8993 32.1152 24.2462 31.7684C24.3329 31.6817 24.4196 31.5949 24.5063 31.4216C24.6797 31.2482 24.6797 30.9881 24.6797 30.8146C24.6797 30.121 23.986 29.6008 23.119 29.3406Z" fill="#FFD8BD"/>
<path d="M14.6311 23.8472L18.8797 22.9802L18.793 22.7201C18.7063 22.7201 18.6196 22.7201 18.5329 22.7201C16.8855 22.8935 15.2381 21.1594 14.8046 18.8184L6.2207 22.0265L11.8565 24.3675L14.6311 23.8472Z" fill="#48AFFF"/>
<path d="M14.7979 16.959C14.7979 17.3925 14.7979 17.826 14.7979 18.3463C14.7979 18.5197 14.8846 18.6931 14.8846 18.9532C15.3181 21.2942 16.8788 23.0284 18.6129 22.855C18.6996 22.855 18.7863 22.855 18.873 22.855C20.5204 22.5081 21.6476 20.3405 21.4741 17.826V17.7393V17.6526C21.2141 17.4792 20.7805 17.2191 19.9135 17.2191C18.2661 17.1324 15.5782 17.9127 14.7979 16.959Z" fill="#FFD8BD"/>
<path d="M14.7925 16.9411C15.4862 17.8948 18.2607 17.0278 19.8214 17.0278C20.6884 17.0278 21.122 17.3746 21.3821 17.4613C21.6423 17.6347 21.6423 17.548 21.6423 16.5943C21.6423 15.9006 21.5555 15.2937 21.2954 14.7734H14.9659C14.7925 15.207 14.7058 15.7272 14.7058 16.2474C14.6191 16.5942 14.7058 16.8544 14.7925 16.9411Z" fill="#5D2A21"/>
<path d="M24.2702 18.6763L23.143 20.1503C22.7095 20.7572 22.7962 21.5376 23.4031 21.9712L27.7384 25.3527C28.5188 25.9595 29.4725 26.2197 30.4263 26.0463C32.1603 25.6994 34.2413 24.9191 31.6401 22.7515L26.1777 18.5029C25.9176 18.3295 25.6575 18.2428 25.3973 18.2428C24.9639 18.1561 24.5303 18.3295 24.2702 18.6763Z" fill="#48AFFF"/>
<path d="M17.109 31.7866L14.9414 29.3588L15.6351 28.752L17.4559 30.8329L17.109 31.7866Z" fill="white"/>
<path d="M15.9893 30.5778L14.1685 28.4969C14.0819 28.4102 14.0819 28.2368 14.1685 28.1501L14.5153 27.8033C14.602 27.7166 14.7755 27.7166 14.8622 27.8033L16.6829 29.8842C16.7697 29.9709 16.7697 30.1444 16.6829 30.231L16.3362 30.5778C16.2495 30.6645 16.0761 30.6645 15.9893 30.5778Z" fill="#FFF200"/>
<path d="M17.7643 28.4942C17.4174 28.0607 17.1573 27.1936 16.8105 26.9335L14.7296 25.8931L12.0418 24.5058L7.35967 22.078C6.57926 21.6445 5.53881 22.078 5.19196 22.8584C4.84521 23.7254 5.27867 24.6792 6.1458 25.026L14.7296 28.2341L15.0764 28.4075C15.1631 28.9277 15.51 29.5347 16.0301 30.055C16.9839 31.0954 18.111 31.6156 18.5446 31.1821C18.9782 30.7486 18.6313 29.5347 17.7643 28.4942Z" fill="#FFD8BD"/>
<path d="M42.4161 30.214C42.2933 30.1379 42.153 30.0944 42.0086 30.0879C41.8642 30.0814 41.7206 30.1119 41.5914 30.1767L39.4252 31.2602V30.9361C39.4252 29.5327 38.2831 28.3906 36.8798 28.3906H27.5464C26.143 28.3906 25.001 29.5327 25.001 30.9361V37.7239C25.001 39.1273 26.143 40.2694 27.5464 40.2694H36.8798C38.2831 40.2694 39.4252 39.1273 39.4252 37.7239V37.3998L41.5914 38.4825C41.7204 38.5478 41.8641 38.5787 42.0085 38.5723C42.153 38.5659 42.2934 38.5224 42.4161 38.446C42.6664 38.2907 42.8191 38.0184 42.8191 37.7239V30.9361C42.8191 30.6417 42.6664 30.3693 42.4161 30.214ZM29.2434 35.6027C29.0736 35.6072 28.9045 35.5776 28.7463 35.5157C28.5881 35.4537 28.4439 35.3608 28.3222 35.2422C28.2004 35.1237 28.1037 34.982 28.0376 34.8255C27.9715 34.6689 27.9374 34.5008 27.9374 34.3309C27.9373 34.161 27.9713 33.9928 28.0373 33.8362C28.1033 33.6796 28.1999 33.5379 28.3216 33.4192C28.4432 33.3006 28.5874 33.2076 28.7455 33.1455C28.9037 33.0835 29.0727 33.0538 29.2425 33.0581C29.5743 33.0666 29.8896 33.2043 30.1213 33.4419C30.353 33.6795 30.4827 33.9982 30.4828 34.33C30.483 34.6619 30.3534 34.9807 30.1219 35.2184C29.8904 35.4562 29.5751 35.5941 29.2434 35.6027Z" fill="#EF4A7B"/>
</g>
<defs>
<clipPath id="clip0_9731_21351">
<rect width="44" height="44" fill="white"/>
</clipPath>
</defs>
</svg>
