<svg width="50" height="48" viewBox="0 0 50 48" fill="none" xmlns="http://www.w3.org/2000/svg">
<g clip-path="url(#clip0_8464_42103)">
<path d="M38.2773 24.615L49.1044 22.6387L46.5673 26.582L49.1044 29.6446L38.2773 31.6194V24.615Z" fill="#EB0087"/>
<path d="M11.6685 28.5156L0.839844 30.4904L3.37702 33.5094L0.839844 37.4964L11.6685 35.52V28.5156Z" fill="#EB0087"/>
<path d="M21.6025 2.2651C22.9702 1.39043 24.7215 1.39043 26.0892 2.2651L26.4602 2.50234C27.4991 3.16672 28.7438 3.4313 29.9631 3.24691L30.3985 3.18106C32.0037 2.9383 33.6036 3.65064 34.4973 5.00598L34.7397 5.3736C35.4185 6.40308 36.4481 7.15107 37.6369 7.47854L38.0615 7.59548C39.6266 8.02661 40.7985 9.32811 41.0637 10.9298L41.1356 11.3642C41.337 12.5808 41.9733 13.6828 42.9262 14.4656L43.2664 14.7451C44.5209 15.7755 45.0621 17.4412 44.6529 19.0122L44.5419 19.4383C44.2311 20.6316 44.3641 21.8972 44.9162 22.9998L45.1134 23.3936C45.8403 24.8452 45.6573 26.587 44.6444 27.8557L44.3697 28.1999C43.6004 29.1636 43.2071 30.3739 43.2631 31.6057L43.283 32.0456C43.3567 33.6674 42.481 35.1841 41.0397 35.9313L40.6487 36.1339C39.5539 36.7014 38.7024 37.6471 38.2525 38.7952L38.0918 39.2052C37.4994 40.7167 36.0826 41.7462 34.462 41.8424L34.0224 41.8686C32.7914 41.9417 31.6289 42.4593 30.7509 43.3251L30.4373 43.6343C29.2814 44.7742 27.5683 45.1384 26.0486 44.5672L25.6364 44.4122C24.4822 43.9784 23.2096 43.9784 22.0553 44.4122L21.6431 44.5672C20.1235 45.1384 18.4104 44.7742 17.2544 43.6343L16.9409 43.3251C16.0629 42.4593 14.9003 41.9417 13.6693 41.8686L13.2298 41.8424C11.6092 41.7462 10.1923 40.7167 9.59994 39.2052L9.43926 38.7952C8.98932 37.6471 8.13781 36.7014 7.04301 36.1339L6.65207 35.9313C5.21074 35.1841 4.33507 33.6674 4.4087 32.0456L4.42868 31.6057C4.48461 30.3739 4.09137 29.1636 3.32204 28.1999L3.04732 27.8557C2.03448 26.587 1.85142 24.8452 2.57833 23.3936L2.7755 22.9998C3.32764 21.8972 3.46066 20.6316 3.14983 19.4383L3.03883 19.0122C2.62962 17.4412 3.17081 15.7755 4.42531 14.7451L4.76558 14.4656C5.71846 13.6828 6.35474 12.5808 6.55615 11.3642L6.62807 10.9298C6.89323 9.32811 8.06511 8.02661 9.63028 7.59548L10.0548 7.47854C11.2437 7.15107 12.2732 6.40308 12.952 5.3736L13.1944 5.00598C14.0881 3.65064 15.688 2.9383 17.2933 3.18106L17.7287 3.24691C18.9479 3.4313 20.1927 3.16672 21.2315 2.50234L21.6025 2.2651L21.3532 1.87534L21.6025 2.2651Z" fill="#48AFFF" stroke="#FFF348" stroke-width="0.92531"/>
<path d="M24.6346 40.61C34.2331 40.1458 41.6376 31.9886 41.1731 22.3906C40.7089 12.7926 32.5513 5.38834 22.9529 5.85274C13.3545 6.31713 5.94986 14.4743 6.41426 24.0723C6.87869 33.6703 15.0362 41.0745 24.6346 40.61Z" stroke="#EB0087" stroke-width="0.802181" stroke-miterlimit="10"/>
<path d="M24.5868 39.6889C33.675 39.2494 40.686 31.5259 40.2461 22.4381C39.8066 13.3503 32.0826 6.33966 22.9945 6.77937C13.9063 7.21908 6.89532 14.9426 7.33503 24.0304C7.77477 33.1182 15.4987 40.1288 24.5868 39.6889Z" stroke="white" stroke-width="0.277593" stroke-miterlimit="10"/>
<path d="M25.805 34.8352L26.6287 35.917L27.9888 35.8517L27.2138 36.9713L27.6957 38.2444L26.3941 37.8527L25.3318 38.7059L25.3013 37.3447L24.162 36.5989L25.4468 36.1478L25.805 34.8352Z" fill="#FFF200"/>
<path d="M21.8904 35.601L22.3662 36.2255L23.1502 36.1872L22.7026 36.8327L22.9818 37.5658L22.2301 37.341L21.6182 37.8321L21.6012 37.0478L20.9436 36.618L21.6844 36.3586L21.8904 35.601Z" fill="#FFF200"/>
<path d="M29.7351 34.0717L30.211 34.6962L30.993 34.6582L30.5492 35.3031L30.8247 36.0369L30.0748 35.8117L29.4629 36.3028L29.4459 35.5185L28.7883 35.0887L29.5291 34.8293L29.7351 34.0717Z" fill="#FFF200"/>
<path d="M20.597 8.1399L21.4211 9.2235L22.7808 9.15635L22.0058 10.2761L22.4877 11.549L21.1861 11.1575L20.1237 12.0106L20.0933 10.6495L18.954 9.90354L20.2391 9.45428L20.597 8.1399Z" fill="#FFF200"/>
<path d="M16.9744 10.4467L17.4502 11.0713L18.2342 11.033L17.7866 11.6785L18.0658 12.4115L17.3141 12.1868L16.7022 12.6777L16.6852 11.8935L16.0276 11.4638L16.7684 11.2044L16.9744 10.4467Z" fill="#FFF200"/>
<path d="M24.8191 8.9174L25.295 9.54201L26.077 9.50405L25.6331 10.1488L25.9087 10.8826L25.1588 10.6575L24.5469 11.1484L24.5299 10.3642L23.8723 9.9345L24.6131 9.67514L24.8191 8.9174Z" fill="#FFF200"/>
<path d="M18.5394 17.8227C19.0532 17.7244 19.5165 17.8091 19.9295 18.0767C20.3425 18.3444 20.5986 18.7376 20.6978 19.2562C20.7971 19.7748 20.7042 20.2348 20.4192 20.636C20.1342 21.0372 19.7348 21.287 19.221 21.3853L18.5448 21.5147L18.837 23.0415L17.5355 23.2905L16.5618 18.2011L18.5394 17.8227ZM18.9845 20.1493C19.1299 20.1215 19.2414 20.0474 19.3188 19.927C19.4011 19.8058 19.427 19.6652 19.3964 19.5052C19.3658 19.3453 19.2903 19.2266 19.17 19.1491C19.0536 19.0658 18.9227 19.0381 18.7772 19.066L18.1011 19.1953L18.3083 20.2787L18.9845 20.1493ZM24.3189 16.7169L24.5595 17.9747L23.3017 18.2154L24.0348 22.047L22.7334 22.296L22.0003 18.4644L20.7425 18.705L20.5018 17.4472L24.3189 16.7169ZM28.5071 21.1913L28.1485 20.4987L26.4544 20.8228L26.3768 21.5989L24.9663 21.8687L25.672 16.458L27.257 16.1547L29.9103 20.9228L28.5071 21.1913ZM26.5746 19.6391L27.5998 19.443L26.7525 17.8114L26.5746 19.6391Z" fill="white"/>
<path d="M3.76074 27.7694L46.5999 20.7285V28.2919L3.76074 35.3328V27.7694Z" fill="#EB0087"/>
<path d="M13.2122 31.1542L12.9623 30.6253L11.6838 30.8221L11.6045 31.4016L10.5399 31.5654L11.2164 27.5293L12.4126 27.3452L14.2713 30.9912L13.2122 31.1542ZM11.8062 29.9382L12.5799 29.8191L11.9893 28.5731L11.8062 29.9382ZM15.452 26.8775C15.8398 26.8178 16.1848 26.8939 16.487 27.1058C16.7892 27.3177 16.9705 27.6193 17.0307 28.0107C17.0909 28.4022 17.0088 28.7444 16.7843 29.0373C16.5597 29.3302 16.2536 29.5066 15.8658 29.5662L15.3555 29.6448L15.5328 30.7971L14.5506 30.9482L13.9595 27.1072L15.452 26.8775ZM15.7222 28.6334C15.832 28.6165 15.9175 28.564 15.9789 28.4759C16.0439 28.3873 16.0671 28.2826 16.0485 28.1619C16.0299 28.0412 15.9766 27.9501 15.8885 27.8888C15.8035 27.8232 15.7062 27.7989 15.5964 27.8158L15.0861 27.8943L15.2119 28.7119L15.7222 28.6334ZM18.6994 26.3777C19.0871 26.3181 19.4321 26.3942 19.7344 26.6061C20.0366 26.8179 20.2178 27.1196 20.2781 27.511C20.3383 27.9024 20.2561 28.2446 20.0316 28.5376C19.8071 28.8305 19.5009 29.0068 19.1131 29.0665L18.6028 29.145L18.7801 30.2974L17.7979 30.4485L17.2068 26.6074L18.6994 26.3777ZM18.9696 28.1337C19.0793 28.1168 19.1649 28.0643 19.2262 27.9762C19.2912 27.8876 19.3144 27.7829 19.2958 27.6622C19.2773 27.5414 19.2239 27.4504 19.1359 27.3891C19.0509 27.3235 18.9535 27.2992 18.8438 27.3161L18.3334 27.3946L18.4593 28.2122L18.9696 28.1337ZM23.0481 29.6406L22.1878 28.5035L21.8367 28.5575L22.0275 29.7976L21.0453 29.9488L20.4542 26.1077L21.9906 25.8712C22.382 25.811 22.7289 25.8868 23.0311 26.0987C23.3364 26.3064 23.5186 26.6023 23.5777 26.9864C23.6132 27.2168 23.5873 27.438 23.5001 27.6499C23.4123 27.8582 23.2766 28.0345 23.0928 28.1788L24.1017 29.4784L23.0481 29.6406ZM21.5757 26.8619L21.7083 27.7234L22.2515 27.6398C22.3728 27.6249 22.4657 27.5713 22.5301 27.479C22.5946 27.3867 22.6169 27.2765 22.5972 27.1485C22.5775 27.0205 22.5231 26.9221 22.4338 26.8535C22.3446 26.7848 22.2397 26.7598 22.119 26.7783L21.5757 26.8619ZM27.6108 28.4329C27.2821 28.8766 26.8361 29.1419 26.2728 29.2286C25.7094 29.3153 25.2025 29.1967 24.7519 28.8728C24.3045 28.5447 24.0374 28.099 23.9507 27.5356C23.864 26.9723 23.985 26.4687 24.3137 26.0249C24.6454 25.5769 25.093 25.3096 25.6563 25.2229C26.2197 25.1362 26.7251 25.2569 27.1725 25.585C27.6231 25.9088 27.8917 26.3525 27.9784 26.9158C28.0651 27.4792 27.9425 27.9849 27.6108 28.4329ZM25.3395 28.0915C25.5668 28.255 25.8287 28.3139 26.125 28.2683C26.4213 28.2227 26.6533 28.0878 26.821 27.8635C26.9882 27.6355 27.0484 27.3698 27.0016 27.0661C26.9549 26.7625 26.8179 26.5289 26.5905 26.3655C26.3625 26.1983 26.1004 26.1375 25.8041 26.1831C25.5078 26.2287 25.2761 26.3655 25.1089 26.5935C24.9412 26.8177 24.8807 27.0817 24.9275 27.3853C24.9742 27.689 25.1115 27.9243 25.3395 28.0915ZM29.475 28.6515L27.6438 25.0013L28.7193 24.8358L29.8726 27.3658L30.2173 24.6052L31.2928 24.4397L30.6438 28.4717L29.475 28.6515ZM33.0263 27.1613L34.5133 26.9325L34.6552 27.8543L32.1859 28.2343L31.5948 24.3933L34.0367 24.0175L34.1777 24.9339L32.7181 25.1585L32.8 25.6907L34.1224 25.4872L34.2617 26.3926L32.9393 26.5961L33.0263 27.1613ZM36.0952 23.7007C36.6257 23.6191 37.0967 23.7357 37.5084 24.0506C37.9232 24.3612 38.1726 24.7891 38.2565 25.3341C38.3403 25.8792 38.2315 26.3641 37.9298 26.7887C37.6313 27.2091 37.2168 27.4601 36.6863 27.5418L35.1225 27.7824L34.5314 23.9414L36.0952 23.7007ZM36.5402 26.5925C36.8073 26.5514 37.0114 26.4301 37.1527 26.2286C37.2934 26.0235 37.3412 25.7746 37.2962 25.4819C37.2511 25.1892 37.131 24.9681 36.9357 24.8184C36.7398 24.665 36.5084 24.6089 36.2413 24.65L35.6871 24.7353L35.986 26.6778L36.5402 26.5925Z" fill="white"/>
</g>
<defs>
<clipPath id="clip0_8464_42103">
<rect width="48.88" height="46.8" fill="white" transform="translate(0.839844 0.279297)"/>
</clipPath>
</defs>
</svg>
