<svg width="50" height="51" viewBox="0 0 50 51" fill="none" xmlns="http://www.w3.org/2000/svg">
<g clip-path="url(#clip0_8464_42036)">
<g clip-path="url(#clip1_8464_42036)">
<path d="M37.165 20.742L48.7304 18.6309L46.0202 22.8431L48.7304 26.1145L37.165 28.2239V20.742Z" fill="#F90390"/>
<path d="M37.1611 20.7422L44.286 22.584V30.0676L37.1611 28.2258V20.7422Z" fill="#210F0A"/>
<path d="M13.2213 25.1094L1.6543 27.2188L4.36447 30.4436L1.6543 34.7024L13.2213 32.5913V25.1094Z" fill="#F90390"/>
<path d="M13.2235 25.1113L6.09863 29.553V37.0366L13.2235 32.595V25.1113Z" fill="#210F0A"/>
<path d="M24.4374 45.8895C24.3107 45.8895 24.1858 45.872 24.063 45.837C23.4955 45.7242 19.3301 44.7774 15.1198 40.885C11.0733 37.1443 6.22346 29.8417 6.09476 16.3059C6.09281 16.0706 6.18446 15.8451 6.35022 15.6779C6.51598 15.5107 6.7422 15.4174 6.97817 15.4174C6.99962 15.4174 7.02106 15.4174 7.04055 15.4174C8.50897 15.4076 9.70244 14.2119 9.70244 12.746C9.70244 10.8484 9.56203 8.31309 9.56007 8.28779C9.53667 7.86981 9.81162 7.49257 10.2192 7.3876L24.2151 3.76354C24.2892 3.7441 24.3633 3.73438 24.4374 3.73438C24.5115 3.73438 24.5876 3.7441 24.6597 3.76354L38.8916 7.45372C39.3323 7.5684 39.615 7.99812 39.5409 8.4472C39.537 8.47054 39.147 10.8989 39.147 12.7479C39.147 14.2139 40.3385 15.4095 41.8069 15.4193C41.8284 15.4193 41.8498 15.4193 41.8713 15.4193C42.1073 15.4193 42.3335 15.5126 42.4992 15.6798C42.665 15.847 42.7566 16.0725 42.7547 16.3078C42.6981 22.3894 41.7348 27.7205 39.8861 32.1573C38.3923 35.7425 36.3252 38.7522 33.7374 41.1047C29.5525 44.9116 25.4086 45.7398 24.7943 45.8447C24.6773 45.8778 24.5563 45.8934 24.4355 45.8934L24.4374 45.8895Z" fill="white"/>
<path d="M42.0966 16.1878C40.0984 16.1878 38.4785 14.576 38.4785 12.5879C38.4785 10.5998 38.8884 8.08747 38.8884 8.08747L24.436 4.3457L10.2232 8.01855C10.2232 8.01855 10.3677 10.6155 10.3677 12.5859C10.3677 14.5563 8.74777 16.1858 6.74962 16.1858C6.7338 16.1858 6.71993 16.1838 6.7041 16.1838C6.95363 42.1281 24.2755 45.2551 24.2755 45.2551C24.3271 45.2729 24.3805 45.2827 24.436 45.2827C24.4914 45.2827 24.5449 45.2729 24.5964 45.2551C24.5964 45.2551 41.8985 42.6995 42.1421 16.1838C42.1263 16.1838 42.1124 16.1858 42.0966 16.1858V16.1878Z" fill="url(#paint0_linear_8464_42036)"/>
<path d="M24.4346 5.84023L37.8267 9.24432C37.6917 10.2687 37.5445 11.6615 37.5445 12.8869C37.5445 15.0833 39.0905 16.9903 41.2553 17.5064C40.9772 27.4607 38.0283 35.246 32.721 40.0291C28.7642 43.5968 24.739 44.3513 24.4426 44.4025C23.9508 44.3001 20.0606 43.4017 16.1522 39.8223C10.8349 34.9545 7.87584 27.24 7.59167 17.5044C9.75448 16.9883 11.3005 15.0794 11.3005 12.8848C11.3005 11.6024 11.24 10.0993 11.1997 9.19905L24.4366 5.83826L24.4346 5.84023ZM24.4346 5.56837L10.9175 9.00004C10.9618 9.91807 11.0284 11.5354 11.0284 12.8869C11.0284 15.0696 9.4279 16.8918 7.31348 17.2957C7.56142 27.2105 10.5446 35.055 15.9647 40.0154C20.1291 43.8272 24.3298 44.6507 24.4346 44.6704C24.4426 44.6704 24.4507 44.6664 24.4608 44.6664C24.5031 44.6606 28.7219 43.9908 32.9024 40.2222C38.3124 35.3465 41.2876 27.4312 41.5295 17.2937C39.4151 16.8918 37.8146 15.0676 37.8146 12.8848C37.8146 11.5394 37.998 9.9752 38.125 9.04733L24.4366 5.56641L24.4346 5.56837Z" fill="white"/>
<path d="M24.4702 43.4502C24.4488 43.4502 24.4274 43.4483 24.4079 43.4425C23.4667 43.2103 20.1414 42.2181 16.8199 39.1474C16.501 38.8537 16.1898 38.5447 15.8942 38.2338C15.8592 38.1974 15.8611 38.1398 15.8981 38.1053C15.9351 38.0707 15.9934 38.0726 16.0284 38.1091C16.3221 38.4181 16.6312 38.7232 16.9463 39.0149C20.2347 42.0549 23.5212 43.0375 24.4508 43.2659C24.4566 43.2659 24.4624 43.2659 24.4702 43.2659C25.1489 43.122 28.6142 42.2545 31.9611 39.2107C33.4545 37.8519 34.7652 36.211 35.862 34.3302C35.8873 34.2861 35.9437 34.2726 35.9865 34.2976C36.0312 34.3226 36.0448 34.3782 36.0196 34.4204C34.915 36.3165 33.5907 37.9728 32.0855 39.345C28.7056 42.4215 25.1975 43.2986 24.5285 43.4425C24.513 43.4463 24.4935 43.4483 24.4721 43.4483L24.4702 43.4502Z" fill="white"/>
<path d="M9.82013 26.3427C9.77876 26.3427 9.74137 26.3155 9.72958 26.2728C9.062 23.6491 8.66033 20.771 8.5363 17.7162C8.53232 17.6017 8.60124 17.4968 8.71153 17.454C10.7614 16.6928 12.1378 14.7294 12.1378 12.5718C12.1378 11.7581 12.1141 10.7444 12.0649 9.55785C12.061 9.43161 12.1437 9.31895 12.2677 9.28791L24.3639 6.18843C24.4171 6.17677 24.4525 6.17677 24.4978 6.18843L36.6984 9.31895C36.8283 9.352 36.915 9.47628 36.8993 9.60832C36.8106 10.3909 36.7043 11.5406 36.7043 12.5738C36.7043 14.7333 38.0827 16.6948 40.1325 17.456C40.2408 17.4968 40.3137 17.6017 40.3078 17.7162C40.2723 18.6348 40.2113 19.5418 40.1306 20.4118C40.1266 20.4622 40.0813 20.4991 40.0301 20.4953C39.979 20.4914 39.9415 20.4467 39.9455 20.3963C40.0282 19.5301 40.0872 18.6251 40.1227 17.7104C40.1227 17.6735 40.101 17.6405 40.0676 17.6289C37.9448 16.8404 36.5172 14.809 36.5172 12.5738C36.5172 11.5328 36.6236 10.3754 36.7141 9.58889C36.7181 9.54618 36.6925 9.50732 36.6512 9.4976L24.4545 6.36904C24.4309 6.36321 24.425 6.36515 24.4092 6.36904L12.315 9.46852C12.2756 9.47823 12.25 9.51318 12.25 9.55394C12.2993 10.7425 12.3228 11.7601 12.3228 12.5757C12.3228 14.809 10.8972 16.8404 8.77648 17.6289C8.74306 17.6425 8.71941 17.6755 8.72137 17.7104C8.8454 20.7516 9.24518 23.6181 9.90872 26.2281C9.92058 26.2766 9.891 26.3272 9.84176 26.3388C9.83394 26.3388 9.82606 26.3407 9.81817 26.3407L9.82013 26.3427Z" fill="white"/>
<path d="M6.10254 29.5526L44.2848 22.5859V30.0695L6.10254 37.0361V29.5526Z" fill="#F90390"/>
<path d="M7.6023 30.355C7.52867 30.355 7.46354 30.3051 7.44986 30.232C7.43446 30.1506 7.48926 30.0724 7.57322 30.0558L8.33214 29.9178C8.41603 29.9029 8.49656 29.9561 8.51373 30.0375C8.52913 30.119 8.47432 30.1988 8.39037 30.2137L7.63144 30.3517C7.62118 30.3533 7.61263 30.355 7.6023 30.355ZM9.12015 30.0791C9.04646 30.0791 8.98139 30.0292 8.9677 29.9561C8.95224 29.8746 9.00711 29.7948 9.091 29.7799L9.84992 29.6419C9.93216 29.6269 10.0144 29.6801 10.0315 29.7616C10.047 29.843 9.9921 29.9212 9.90821 29.9378L9.14929 30.0758C9.13896 30.0774 9.13041 30.0791 9.12015 30.0791ZM10.638 29.8015C10.5643 29.8015 10.4992 29.7516 10.4855 29.6784C10.4701 29.597 10.5249 29.5189 10.6088 29.5023L11.3678 29.3643C11.4534 29.3493 11.534 29.4025 11.5494 29.484C11.5648 29.5654 11.5099 29.6452 11.426 29.6602L10.6671 29.7981C10.6568 29.7998 10.6483 29.8015 10.638 29.8015ZM12.1558 29.5238C12.0822 29.5238 12.0171 29.474 12.0033 29.4009C11.9879 29.3194 12.0427 29.2396 12.1267 29.2246L12.8856 29.0867C12.9713 29.0717 13.0518 29.1249 13.0672 29.2064C13.0826 29.2878 13.0278 29.3676 12.9438 29.3826L12.1849 29.5205C12.1747 29.5222 12.1661 29.5238 12.1558 29.5238ZM13.6736 29.2463C13.6 29.2463 13.5349 29.1964 13.5212 29.1233C13.5058 29.0418 13.5606 28.962 13.6445 28.9471L14.4035 28.8091C14.4874 28.7941 14.5696 28.8473 14.5851 28.9288C14.6004 29.0102 14.5456 29.09 14.4617 29.1049L13.7028 29.243C13.6925 29.2446 13.6839 29.2463 13.6736 29.2463ZM15.1915 28.9687C15.1178 28.9687 15.0527 28.9188 15.039 28.8456C15.0236 28.7642 15.0784 28.686 15.1623 28.6694L15.9212 28.5315C16.0052 28.5166 16.0874 28.5697 16.1028 28.6512C16.1183 28.7326 16.0635 28.8108 15.9795 28.8274L15.2206 28.9653C15.2103 28.967 15.2017 28.9687 15.1915 28.9687ZM16.7093 28.6911C16.6356 28.6911 16.5706 28.6412 16.5569 28.5681C16.5414 28.4866 16.5962 28.4085 16.6802 28.3918L17.4391 28.2539C17.523 28.2389 17.6053 28.2921 17.6207 28.3736C17.6361 28.455 17.5813 28.5332 17.4973 28.5498L16.7385 28.6878C16.7281 28.6894 16.7196 28.6911 16.7093 28.6911ZM18.2272 28.4135C18.1535 28.4135 18.0884 28.3636 18.0747 28.2904C18.0593 28.209 18.1141 28.1309 18.198 28.1143L18.9569 27.9763C19.0409 27.9613 19.1231 28.0145 19.1385 28.0959C19.1539 28.1774 19.0991 28.2555 19.0152 28.2722L18.2562 28.4101C18.246 28.4118 18.2374 28.4135 18.2272 28.4135ZM19.7449 28.1358C19.6713 28.1358 19.6062 28.086 19.5925 28.0128C19.5771 27.9314 19.6319 27.8533 19.7159 27.8366L20.4748 27.6987C20.5587 27.6837 20.6392 27.7369 20.6564 27.8184C20.6718 27.8998 20.617 27.978 20.533 27.9946L19.7741 28.1325C19.7638 28.1342 19.7553 28.1358 19.7449 28.1358ZM21.2628 27.8583C21.1892 27.8583 21.124 27.8084 21.1103 27.7353C21.0949 27.6538 21.1498 27.574 21.2337 27.5591L21.9926 27.4211C22.0782 27.4061 22.1588 27.4593 22.1742 27.5408C22.1896 27.6222 22.1348 27.702 22.0509 27.7169L21.2919 27.855C21.2817 27.8566 21.2731 27.8583 21.2628 27.8583ZM22.7806 27.5807C22.707 27.5807 22.6419 27.5308 22.6282 27.4576C22.6127 27.3762 22.6675 27.2981 22.7515 27.2814L23.5104 27.1435C23.5944 27.1285 23.6749 27.1817 23.692 27.2631C23.7075 27.3446 23.6526 27.4227 23.5686 27.4394L22.8098 27.5773C22.7995 27.579 22.7909 27.5807 22.7806 27.5807ZM24.2985 27.303C24.2248 27.303 24.1597 27.2532 24.146 27.1801C24.1306 27.0986 24.1854 27.0205 24.2693 27.0038L25.0283 26.8659C25.1105 26.8509 25.1927 26.9041 25.2099 26.9856C25.2253 27.067 25.1704 27.1452 25.0865 27.1618L24.3276 27.2997C24.3173 27.3014 24.3088 27.303 24.2985 27.303ZM25.8163 27.0255C25.7426 27.0255 25.6775 26.9756 25.6638 26.9024C25.6484 26.821 25.7032 26.7429 25.7872 26.7263L26.5461 26.5883C26.6318 26.5733 26.7122 26.6265 26.7277 26.7079C26.7431 26.7894 26.6883 26.8675 26.6043 26.8841L25.8454 27.0221C25.8351 27.0238 25.8266 27.0255 25.8163 27.0255ZM27.3341 26.7478C27.2605 26.7478 27.1954 26.698 27.1817 26.6248C27.1663 26.5434 27.2211 26.4636 27.305 26.4486L28.0639 26.3107C28.1478 26.2957 28.2301 26.3489 28.2455 26.4304C28.2609 26.5118 28.2061 26.5916 28.1222 26.6066L27.3633 26.7445C27.353 26.7462 27.3444 26.7478 27.3341 26.7478ZM28.852 26.4703C28.7783 26.4703 28.7132 26.4204 28.6995 26.3473C28.6841 26.2658 28.7389 26.186 28.8228 26.171L29.5817 26.0331C29.664 26.0181 29.7462 26.0713 29.7633 26.1528C29.7788 26.2342 29.7239 26.3123 29.64 26.3289L28.8811 26.4669C28.8708 26.4686 28.8622 26.4703 28.852 26.4703ZM30.3698 26.1927C30.2961 26.1927 30.231 26.1428 30.2173 26.0696C30.2019 25.9882 30.2567 25.91 30.3407 25.8934L31.0996 25.7554C31.1835 25.7405 31.2658 25.7937 31.2812 25.8751C31.2966 25.9566 31.2418 26.0364 31.1578 26.0514L30.3989 26.1893C30.3886 26.191 30.3801 26.1927 30.3698 26.1927ZM31.8877 25.915C31.814 25.915 31.7488 25.8652 31.7351 25.792C31.7197 25.7106 31.7746 25.6308 31.8585 25.6158L32.6174 25.4779C32.6997 25.4629 32.7819 25.5161 32.799 25.5976C32.8144 25.679 32.7596 25.7572 32.6757 25.7738L31.9167 25.9117C31.9065 25.9134 31.8979 25.915 31.8877 25.915ZM33.4054 25.6375C33.3318 25.6375 33.2667 25.5876 33.253 25.5144C33.2376 25.433 33.2924 25.3532 33.3764 25.3383L34.1353 25.2003C34.2192 25.1853 34.3014 25.2385 34.3169 25.3199C34.3323 25.4014 34.2775 25.4812 34.1935 25.4961L33.4346 25.6341C33.4243 25.6358 33.4158 25.6375 33.4054 25.6375ZM34.9233 25.3615C34.8496 25.3615 34.7845 25.3116 34.7708 25.2385C34.7554 25.157 34.8102 25.0772 34.8941 25.0623L35.6531 24.9243C35.7387 24.9093 35.8193 24.9625 35.8347 25.044C35.8501 25.1254 35.7952 25.2052 35.7113 25.2202L34.9524 25.3582C34.9421 25.3598 34.9335 25.3615 34.9233 25.3615ZM36.4411 25.0839C36.3674 25.0839 36.3024 25.034 36.2886 24.9609C36.2732 24.8795 36.328 24.8013 36.412 24.7847L37.1709 24.6467C37.2549 24.6318 37.3354 24.685 37.3525 24.7664C37.3679 24.8479 37.3131 24.926 37.2291 24.9426L36.4702 25.0806C36.4599 25.0822 36.4514 25.0839 36.4411 25.0839ZM37.959 24.8063C37.8853 24.8063 37.8202 24.7565 37.8065 24.6833C37.7911 24.6018 37.8459 24.5237 37.9298 24.5071L38.6888 24.3691C38.771 24.3542 38.8532 24.4073 38.8703 24.4888C38.8857 24.5702 38.8309 24.6484 38.747 24.665L37.9881 24.803C37.9778 24.8047 37.9692 24.8063 37.959 24.8063ZM39.4768 24.5287C39.4031 24.5287 39.338 24.4788 39.3243 24.4057C39.3089 24.3242 39.3637 24.2461 39.4477 24.2295L40.2066 24.0915C40.2922 24.0765 40.3727 24.1298 40.3882 24.2112C40.4036 24.2927 40.3488 24.3708 40.2648 24.3874L39.5059 24.5254C39.4956 24.527 39.4871 24.5287 39.4768 24.5287ZM40.9946 24.2511C40.9209 24.2511 40.8559 24.2012 40.8422 24.1281C40.8267 24.0467 40.8816 23.9669 40.9655 23.9519L41.7244 23.8139C41.8083 23.799 41.8906 23.8521 41.906 23.9336C41.9214 24.0151 41.8666 24.0949 41.7827 24.1098L41.0238 24.2478C41.0134 24.2495 41.0049 24.2511 40.9946 24.2511ZM42.5125 23.9735C42.4388 23.9735 42.3737 23.9236 42.3599 23.8505C42.3446 23.769 42.3994 23.6909 42.4833 23.6743L42.7883 23.6177C42.8739 23.6028 42.9527 23.656 42.9698 23.7374C42.9852 23.8189 42.9304 23.897 42.8465 23.9136L42.5416 23.9685C42.5313 23.9702 42.5227 23.9718 42.5125 23.9718V23.9735Z" fill="white"/>
<path d="M7.6023 36.0659C7.52867 36.0659 7.46354 36.0161 7.44986 35.9429C7.43446 35.8615 7.48926 35.7834 7.57322 35.7667L8.33214 35.6288C8.41603 35.6138 8.49827 35.667 8.51373 35.7485C8.52913 35.8299 8.47432 35.908 8.39037 35.9246L7.63144 36.0626C7.62118 36.0643 7.61263 36.0659 7.6023 36.0659ZM9.12015 35.7883C9.04646 35.7883 8.98139 35.7384 8.9677 35.6653C8.95224 35.5839 9.00711 35.5057 9.091 35.4891L9.84992 35.3511C9.93388 35.3362 10.0144 35.3894 10.0315 35.4708C10.047 35.5523 9.9921 35.6304 9.90821 35.647L9.14929 35.785C9.13896 35.7867 9.13041 35.7883 9.12015 35.7883ZM10.638 35.5107C10.5643 35.5107 10.4992 35.4609 10.4855 35.3877C10.4701 35.3063 10.5249 35.2281 10.6088 35.2115L11.3678 35.0736C11.4534 35.0586 11.534 35.1118 11.5494 35.1933C11.5648 35.2747 11.5099 35.3545 11.426 35.3695L10.6671 35.5074C10.6568 35.5091 10.6483 35.5107 10.638 35.5107ZM12.1558 35.2332C12.0822 35.2332 12.0171 35.1832 12.0033 35.1101C11.9879 35.0286 12.0427 34.9506 12.1267 34.9339L12.8856 34.7959C12.9713 34.781 13.0518 34.8342 13.0672 34.9156C13.0826 34.9971 13.0278 35.0752 12.9438 35.0918L12.1849 35.2298C12.1747 35.2314 12.1661 35.2332 12.1558 35.2332ZM13.6736 34.9555C13.6 34.9555 13.5349 34.9057 13.5212 34.8325C13.5058 34.7511 13.5606 34.6713 13.6445 34.6563L14.4035 34.5183C14.4874 34.5034 14.5696 34.5566 14.5851 34.638C14.6004 34.7195 14.5456 34.7993 14.4617 34.8143L13.7028 34.9522C13.6925 34.9539 13.6839 34.9555 13.6736 34.9555ZM15.1915 34.6779C15.1178 34.6779 15.0527 34.6281 15.039 34.5549C15.0236 34.4735 15.0784 34.3953 15.1623 34.3787L15.9212 34.2408C16.0052 34.2258 16.0857 34.279 16.1028 34.3605C16.1183 34.4419 16.0635 34.52 15.9795 34.5366L15.2206 34.6746C15.2103 34.6763 15.2017 34.6779 15.1915 34.6779ZM16.7093 34.4003C16.6356 34.4003 16.5706 34.3504 16.5569 34.2773C16.5414 34.1959 16.5962 34.1177 16.6802 34.1011L17.4391 33.9631C17.5248 33.9482 17.6053 34.0014 17.6207 34.0828C17.6361 34.1643 17.5813 34.2441 17.4973 34.259L16.7385 34.397C16.7281 34.3986 16.7196 34.4003 16.7093 34.4003ZM18.2272 34.1227C18.1535 34.1227 18.0884 34.0729 18.0747 33.9997C18.0593 33.9183 18.1141 33.8401 18.198 33.8235L18.9569 33.6855C19.0409 33.6706 19.1231 33.7238 19.1385 33.8052C19.1539 33.8867 19.0991 33.9648 19.0152 33.9815L18.2562 34.1194C18.246 34.1211 18.2374 34.1227 18.2272 34.1227ZM19.7449 33.8451C19.6713 33.8451 19.6062 33.7953 19.5925 33.7221C19.5771 33.6406 19.6319 33.5608 19.7159 33.5459L20.4748 33.408C20.5587 33.393 20.6409 33.4462 20.6564 33.5276C20.6718 33.6091 20.617 33.6888 20.533 33.7038L19.7741 33.8418C19.7638 33.8434 19.7553 33.8451 19.7449 33.8451ZM21.2628 33.5675C21.1892 33.5675 21.124 33.5176 21.1103 33.4445C21.0949 33.3631 21.1498 33.2833 21.2337 33.2683L21.9926 33.1303C22.0782 33.1154 22.1588 33.1686 22.1742 33.25C22.1896 33.3315 22.1348 33.4113 22.0509 33.4262L21.2919 33.5642C21.2817 33.5659 21.2731 33.5675 21.2628 33.5675ZM22.7806 33.2916C22.707 33.2916 22.6419 33.2417 22.6282 33.1686C22.6127 33.0871 22.6675 33.0073 22.7515 32.9924L23.5104 32.8544C23.5944 32.8394 23.6766 32.8927 23.692 32.9741C23.7075 33.0555 23.6526 33.1353 23.5686 33.1503L22.8098 33.2883C22.7995 33.2899 22.7909 33.2916 22.7806 33.2916ZM24.2985 33.014C24.2248 33.014 24.1597 32.9641 24.146 32.8909C24.1306 32.8095 24.1854 32.7314 24.2693 32.7148L25.0283 32.5768C25.1105 32.5619 25.1927 32.615 25.2099 32.6965C25.2253 32.7779 25.1704 32.8561 25.0865 32.8727L24.3276 33.0106C24.3173 33.0123 24.3088 33.014 24.2985 33.014ZM25.8163 32.7364C25.7426 32.7364 25.6775 32.6865 25.6638 32.6134C25.6484 32.5319 25.7032 32.4538 25.7872 32.4372L26.5461 32.2992C26.6318 32.2842 26.7122 32.3374 26.7277 32.4189C26.7431 32.5003 26.6883 32.5785 26.6043 32.5951L25.8454 32.7331C25.8351 32.7347 25.8266 32.7364 25.8163 32.7364ZM27.3341 32.4588C27.2605 32.4588 27.1954 32.4089 27.1817 32.3358C27.1663 32.2543 27.2211 32.1762 27.305 32.1596L28.0639 32.0216C28.1478 32.0066 28.2301 32.0598 28.2455 32.1413C28.2609 32.2228 28.2061 32.3026 28.1222 32.3175L27.3633 32.4554C27.353 32.4571 27.3444 32.4588 27.3341 32.4588ZM28.852 32.1811C28.7783 32.1811 28.7132 32.1313 28.6995 32.0582C28.6841 31.9767 28.7389 31.8986 28.8228 31.8819L29.5817 31.744C29.6657 31.729 29.7462 31.7822 29.7633 31.8637C29.7788 31.9451 29.7239 32.0233 29.64 32.0399L28.8811 32.1778C28.8708 32.1795 28.8622 32.1811 28.852 32.1811ZM30.3698 31.9036C30.2961 31.9036 30.231 31.8537 30.2173 31.7806C30.2019 31.6991 30.2567 31.6193 30.3407 31.6044L31.0996 31.4664C31.1852 31.4514 31.2658 31.5046 31.2812 31.5861C31.2966 31.6675 31.2418 31.7473 31.1578 31.7623L30.3989 31.9003C30.3886 31.9019 30.3801 31.9036 30.3698 31.9036ZM31.8877 31.626C31.814 31.626 31.7488 31.5761 31.7351 31.5029C31.7197 31.4215 31.7746 31.3434 31.8585 31.3268L32.6174 31.1888C32.7014 31.1739 32.7819 31.227 32.799 31.3085C32.8144 31.3899 32.7596 31.468 32.6757 31.4847L31.9167 31.6226C31.9065 31.6243 31.8979 31.626 31.8877 31.626ZM33.4054 31.3484C33.3318 31.3484 33.2667 31.2985 33.253 31.2254C33.2376 31.1439 33.2924 31.0658 33.3764 31.0491L34.1353 30.9112C34.2175 30.8962 34.3014 30.9494 34.3169 31.0309C34.3323 31.1123 34.2775 31.1921 34.1935 31.2071L33.4346 31.3451C33.4243 31.3467 33.4158 31.3484 33.4054 31.3484ZM34.9233 31.0708C34.8496 31.0708 34.7845 31.0209 34.7708 30.9478C34.7554 30.8663 34.8102 30.7882 34.8941 30.7716L35.6531 30.6336C35.737 30.6186 35.8193 30.6718 35.8347 30.7533C35.8501 30.8347 35.7952 30.9128 35.7113 30.9295L34.9524 31.0674C34.9421 31.0691 34.9335 31.0708 34.9233 31.0708ZM36.4411 30.7948C36.3674 30.7948 36.3024 30.745 36.2886 30.6718C36.2732 30.5903 36.328 30.5105 36.412 30.4956L37.1709 30.3577C37.2549 30.3427 37.3371 30.3959 37.3525 30.4773C37.3679 30.5588 37.3131 30.6386 37.2291 30.6535L36.4702 30.7915C36.4599 30.7931 36.4514 30.7948 36.4411 30.7948ZM37.959 30.5172C37.8853 30.5172 37.8202 30.4674 37.8065 30.3942C37.7911 30.3128 37.8459 30.233 37.9298 30.218L38.6888 30.08C38.7727 30.0651 38.8549 30.1183 38.8703 30.1997C38.8857 30.2812 38.8309 30.361 38.747 30.3759L37.9881 30.5139C37.9778 30.5156 37.9692 30.5172 37.959 30.5172ZM39.4768 30.2396C39.4031 30.2396 39.338 30.1898 39.3243 30.1166C39.3089 30.0352 39.3637 29.9554 39.4477 29.9404L40.2066 29.8025C40.2922 29.7875 40.3727 29.8406 40.3882 29.9222C40.4036 30.0036 40.3488 30.0834 40.2648 30.0983L39.5059 30.2363C39.4956 30.238 39.4871 30.2396 39.4768 30.2396ZM40.9946 29.962C40.9209 29.962 40.8559 29.9121 40.8422 29.839C40.8267 29.7576 40.8816 29.6794 40.9655 29.6628L41.7244 29.5248C41.8083 29.5099 41.8906 29.5631 41.906 29.6445C41.9214 29.726 41.8666 29.8041 41.7827 29.8207L41.0238 29.9587C41.0134 29.9603 41.0049 29.962 40.9946 29.962ZM42.5125 29.6844C42.4388 29.6844 42.3737 29.6346 42.3599 29.5614C42.3446 29.48 42.3994 29.4002 42.4833 29.3852L42.7883 29.3287C42.8739 29.3137 42.9545 29.3669 42.9698 29.4484C42.9852 29.5298 42.9304 29.6096 42.8465 29.6246L42.5416 29.6811C42.5313 29.6828 42.5227 29.6844 42.5125 29.6844Z" fill="white"/>
<path d="M21.9083 16.3066L21.8095 15.0708L20.874 14.2584L22.0187 13.7821L22.5013 12.6406L23.3057 13.5842L24.54 13.69L23.8941 14.7486L24.1746 15.9568L22.9679 15.6668L21.9083 16.3066Z" fill="#FFF348"/>
<path d="M17.8668 17.7874L17.3066 17.0256L16.4785 16.9706L16.8895 16.0763L16.676 15.0797L17.49 15.2895L18.1871 14.7324L18.2778 15.7541L18.9225 16.4036L18.1649 16.8282L17.8668 17.7874Z" fill="#FFF348"/>
<path d="M28.3392 15.9554L27.502 15.1935L26.2568 15.1385L26.8764 14.2443L26.556 13.2501L27.777 13.4574L28.8197 12.9004L28.9587 13.922L29.9228 14.574L28.7895 14.9962L28.3392 15.9554Z" fill="#FFF348"/>
<path d="M32.7947 15.3447L32.3763 14.888L31.7539 14.8539L32.0631 14.319L31.9035 13.7221L32.5138 13.8483L33.0372 13.5117L33.1039 14.1268L33.5869 14.5153L33.019 14.7678L32.7947 15.3447Z" fill="#FFF348"/>
<path d="M13.8552 19.0104L13.4349 18.4014L12.8145 18.356L13.1237 17.6402L12.962 16.8469L13.5723 17.0125L14.0957 16.5664L14.1645 17.3837L14.6475 17.9046L14.0796 18.2412L13.8552 19.0104Z" fill="#FFF348"/>
<path d="M23.2906 40.3945L22.5889 37.4179L23.6597 38.9222L24.4227 36.7285L25.1344 38.856L26.2549 37.4179L25.5548 40.3945H23.2906Z" fill="#FFF348"/>
<path d="M16.8843 29.575L16.6899 32.678L15.7965 32.8333L14.974 30.9229L14.84 32.9995L13.9467 33.1547L12.7168 30.2993L13.5006 30.1631L14.259 32.2539L14.4066 30.0056L15.1945 29.8687L16.092 31.9354L16.1047 29.7105L16.8843 29.575ZM19.5315 31.6242L18.4149 31.8182L18.3239 32.394L17.5654 32.5259L18.1428 29.3781L18.9729 29.2338L20.5784 32.0022L19.8114 32.1356L19.5315 31.6242ZM19.251 31.1086L18.6898 30.0774L18.5051 31.2382L19.251 31.1086ZM22.3881 31.6878L21.5478 30.6747L21.3835 30.7033L21.579 31.8284L20.8584 31.9536L20.3407 28.9744L21.5712 28.7606C21.8071 28.7196 22.0137 28.7256 22.1907 28.7788C22.3678 28.8319 22.5095 28.9231 22.6159 29.0522C22.7218 29.1785 22.7906 29.333 22.8224 29.5155C22.8599 29.7318 22.8315 29.9264 22.7371 30.099C22.6455 30.2713 22.4908 30.4052 22.273 30.501L23.1844 31.5494L22.3881 31.6878ZM21.2978 30.2102L21.7444 30.1326C21.8877 30.1077 21.9877 30.0585 22.0444 29.985C22.1006 29.9087 22.1179 29.8087 22.0964 29.6851C22.076 29.5671 22.0247 29.4805 21.9428 29.4253C21.8637 29.3696 21.7539 29.3539 21.6134 29.3784L21.1667 29.456L21.2978 30.2102ZM25.067 31.2222L24.2268 30.2091L24.0624 30.2377L24.2579 31.3628L23.5374 31.488L23.0196 28.5089L24.25 28.2951C24.4861 28.254 24.6926 28.2601 24.8696 28.3133C25.0468 28.3664 25.1885 28.4575 25.2948 28.5866C25.4007 28.7129 25.4695 28.8674 25.5012 29.05C25.5389 29.2663 25.5105 29.4608 25.416 29.6335C25.3244 29.8057 25.1696 29.9397 24.9519 30.0354L25.8634 31.0839L25.067 31.2222ZM23.9767 29.7447L24.4234 29.6671C24.5667 29.6422 24.6666 29.593 24.7233 29.5194C24.7795 29.4431 24.7969 29.3432 24.7754 29.2196C24.7549 29.1016 24.7036 29.0149 24.6217 28.9598C24.5426 28.904 24.4328 28.8884 24.2923 28.9128L23.8456 28.9904L23.9767 29.7447ZM27.9675 30.1582L26.8508 30.3522L26.7598 30.928L26.0013 31.0598L26.5787 27.9121L27.4088 27.7678L29.0142 30.5363L28.2473 30.6695L27.9675 30.1582ZM27.6868 29.6426L27.1256 28.6114L26.941 29.7722L27.6868 29.6426ZM31.9406 30.0277L31.2201 30.1529L29.6971 28.5335L30.0149 30.3624L29.2943 30.4876L28.7766 27.5084L29.4972 27.3832L31.0231 29.0194L30.7024 27.1738L31.4229 27.0485L31.9406 30.0277ZM34.0612 26.5901L34.1608 27.1631L33.3517 27.3037L33.7698 29.7098L33.0451 29.8358L32.6269 27.4297L31.8263 27.5688L31.7267 26.9957L34.0612 26.5901ZM36.9396 26.0898L36.2528 28.2582L36.4249 29.2485L35.7001 29.3744L35.5281 28.3841L34.15 26.5746L34.9759 26.4311L35.7599 27.5451L36.1221 26.2319L36.9396 26.0898Z" fill="white"/>
<path d="M17.7139 22.0577C17.936 22.0717 18.1221 22.1466 18.2721 22.2827C18.4254 22.4181 18.5196 22.5893 18.5546 22.7963C18.6059 23.1 18.5442 23.3542 18.3693 23.5589C18.1978 23.763 17.9234 23.8969 17.5462 23.9606L15.8989 24.239L15.3008 20.6989L16.908 20.4274C17.2686 20.3665 17.5605 20.3978 17.7839 20.5214C18.0075 20.6451 18.1437 20.8521 18.1928 21.1425C18.2289 21.3561 18.2023 21.5443 18.113 21.707C18.0232 21.8664 17.8902 21.9833 17.7139 22.0577ZM16.4015 22.0013L16.9623 21.9066C17.2593 21.8564 17.3864 21.7045 17.3436 21.4508C17.3007 21.1971 17.1274 21.0959 16.8236 21.1472L16.2729 21.2403L16.4015 22.0013ZM17.2483 23.2951C17.5655 23.2415 17.702 23.0845 17.658 22.8242C17.6366 22.6973 17.5782 22.6059 17.483 22.5499C17.3871 22.4906 17.2624 22.4738 17.1089 22.4998L16.503 22.6021L16.6375 23.3983L17.2483 23.2951ZM20.9877 23.3792L19.9957 22.1717L19.8004 22.2047L20.0263 23.5416L19.1701 23.6862L18.572 20.1463L20.034 19.8993C20.3144 19.8519 20.5596 19.8602 20.7695 19.9243C20.9795 19.9884 21.1473 20.0974 21.2729 20.2513C21.3978 20.4018 21.4787 20.5856 21.5153 20.8026C21.5588 21.0596 21.5239 21.2903 21.4108 21.4948C21.3011 21.6988 21.1167 21.857 20.8576 21.9695L21.934 23.2193L20.9877 23.3792ZM19.7014 21.6189L20.2322 21.5292C20.4024 21.5005 20.5214 21.4426 20.5891 21.3556C20.6563 21.2653 20.6774 21.1467 20.6526 20.9998C20.6289 20.8596 20.5686 20.7565 20.4716 20.6905C20.3779 20.6239 20.2476 20.6047 20.0808 20.633L19.55 20.7226L19.7014 21.6189ZM24.4372 22.132L23.1103 22.3562L22.9992 23.0393L22.0979 23.1916L22.8009 19.4575L23.7873 19.2908L25.6779 22.5867L24.7666 22.7407L24.4372 22.132ZM24.1069 21.5183L23.4464 20.2909L23.2207 21.668L24.1069 21.5183ZM29.1551 21.9991L28.299 22.1438L26.4998 20.2127L26.867 22.3858L26.0108 22.5305L25.4126 18.9905L26.2688 18.8458L28.0714 20.7969L27.7008 18.6039L28.557 18.4592L29.1551 21.9991ZM32.6306 19.5837C32.6893 19.9309 32.6663 20.2524 32.5618 20.5481C32.46 20.84 32.2817 21.0847 32.0267 21.2823C31.775 21.4793 31.4606 21.6096 31.0833 21.6734L29.7465 21.8993L29.1484 18.3593L30.4852 18.1334C30.8658 18.0691 31.207 18.087 31.5088 18.1871C31.8107 18.2871 32.0576 18.4583 32.2496 18.7005C32.445 18.9422 32.572 19.2366 32.6306 19.5837ZM30.8788 20.92C31.2126 20.8636 31.4564 20.7314 31.6101 20.5235C31.7671 20.315 31.8186 20.0505 31.7644 19.7301C31.7103 19.4096 31.5748 19.1768 31.358 19.0314C31.1445 18.8855 30.8708 18.8408 30.537 18.8972L30.1315 18.9657L30.4733 20.9886L30.8788 20.92Z" fill="white"/>
</g>
</g>
<defs>
<linearGradient id="paint0_linear_8464_42036" x1="6.70606" y1="24.8162" x2="42.1421" y2="24.8162" gradientUnits="userSpaceOnUse">
<stop stop-color="#48AFFF"/>
<stop offset="1" stop-color="#48AFFF"/>
</linearGradient>
<clipPath id="clip0_8464_42036">
<rect width="48.88" height="49.92" fill="white" transform="translate(0.599609 0.160156)"/>
</clipPath>
<clipPath id="clip1_8464_42036">
<rect width="48.88" height="49.92" fill="white" transform="translate(0.597656 0.160156)"/>
</clipPath>
</defs>
</svg>
